<?xml version="1.0" encoding="utf-8"?>
<!-- Generator: Adobe Illustrator 21.0.0, SVG Export Plug-In . SVG Version: 6.00 Build 0)  -->
<svg version="1.1" id="Layer_1" xmlns="http://www.w3.org/2000/svg" xmlns:xlink="http://www.w3.org/1999/xlink" x="0px" y="0px"
	 viewBox="0 0 451 415.5" style="enable-background:new 0 0 451 415.5;" xml:space="preserve">
<style type="text/css">
	.st0{fill:none;stroke:#ffffff;stroke-width:9;stroke-linecap:round;stroke-linejoin:round;stroke-miterlimit:10;}
	.st1{fill:none;stroke:#ffffff;stroke-width:12;stroke-linecap:round;stroke-linejoin:round;stroke-miterlimit:10;}
</style>
<image style="display:none;overflow:visible;" width="960" height="1280" xlink:href="../../../../../Desktop/IMG_1489.jpg"  transform="matrix(0.6398 0 0 0.6398 107.5 -388)">
</image>
<g>
	<g>
		<g>
			<path class="st0" d="M319.3,348c0.1-78.9,0.4-137.5,0.1-162.1c-0.1-5.8-0.3-20.8,8.5-25.3c4.6-2.3,10.8-1.4,14.9,1
				c7.4,4.3,8.3,13.4,8.4,15c0,0,0,0.1,0,0.3c0.7,9.1-5.5,17-8.5,20.7c-7.4,9.3-16.8,14.4-22.4,17c2.7,1.3,6.7,3.6,10.6,7.3
				c4.1,3.9,6.2,7.6,7.5,9.9c7.5,13.4,10.3,36.1,10.6,38.9"/>
			<path class="st0" d="M387.9,163.9c-0.7-0.5-9.4-6-16-2.8c-8.7,4.2-8.2,20.4-1.4,25.8c4.4,3.6,9,0.4,13.7,4
				c6.3,4.8,9,18.3,1.2,24.1c-5.1,3.7-13.5,3.3-20.2-1.4"/>
			<g>
				<line class="st0" x1="60.8" y1="159" x2="60.8" y2="215.5"/>
				<path class="st0" d="M85.8,159c0,19,0,38,0,57"/>
				<line class="st0" x1="60.8" y1="186.3" x2="85.8" y2="186.3"/>
			</g>
			<g>
				<path class="st0" d="M162.8,158c-18.3,0-36.6,0-55,0c-2.6,16.2-4.5,35.8-4,58c0.7,28.2,5.1,52.3,10,71c6,0,12,0,18,0"/>
				<path class="st0" d="M104.1,223.6c12.2,0.1,24.5,0.2,36.7,0.3"/>
			</g>
			<g>
				<path class="st0" d="M306.8,158.6c-11,0-22,0-33.1-0.1c-0.6,79.8-1.3,159.6-1.9,239.4c5.8-3.3,13.4-8.4,21-16
					c6.4-6.4,10.9-12.8,14-18"/>
				<path class="st0" d="M273.8,271.6c9.7,0,19.3,0,29,0"/>
			</g>
			<g>
				<path class="st0" d="M134.8,339c14.9-60.1,29.9-120.3,44.8-180.4c-0.3,79.5-0.5,159-0.8,238.4"/>
				<line class="st0" x1="151.5" y1="274.2" x2="178.8" y2="274.6"/>
			</g>
			<path class="st0" d="M202,159c0,82.4,0,164.9,0,247.3c10.5,4.3,23.4,7.3,33.9,1.7c18.6-9.9,15.2-39.6,15-125
				c-0.2-80.1,2.7-109.2-17-121C223.6,155.8,211.4,156.8,202,159z"/>
		</g>
		<path class="st1" d="M344,6H107c5.7,21.9,9.3,47.2,8,75.2c-0.9,19.1-3.8,36.7-8,52.8c79,0,158,0,237,0c-3.5-14.8-6-30.8-7-47.8
			C335.3,56.6,338.5,29.7,344,6z"/>
		<line class="st1" x1="115" y1="90" x2="336" y2="91"/>
		<g>
			<path class="st1" d="M34.8,133c28.6,0.4,57.3,0.7,85.9,1c98.7,1,197.4,1.7,296,2"/>
			<path class="st1" d="M34.8,133C18.9,133,6,124,6,113"/>
			<path class="st1" d="M416.2,136c15.9,0,28.8-9,28.8-20"/>
		</g>
	</g>
</g>
</svg>
