<?xml version="1.0" encoding="utf-8"?>
<!-- Generator: Adobe Illustrator 21.0.0, SVG Export Plug-In . SVG Version: 6.00 Build 0)  -->
<svg version="1.1" id="Layer_1" xmlns="http://www.w3.org/2000/svg" xmlns:xlink="http://www.w3.org/1999/xlink" x="0px" y="0px"
	 viewBox="0 0 211.5 152.1" style="enable-background:new 0 0 211.5 152.1;" xml:space="preserve">
<style type="text/css">
	.st0{fill:#1A1A1A;}
	.st1{fill:#1A1A1A;stroke:#000000;stroke-linejoin:round;stroke-miterlimit:10;}
	.st2{opacity:0.45;}
	.st3{fill:#4D4D4D;}
	.st4{fill:none;stroke:#000000;stroke-miterlimit:10;}
	.st5{opacity:0.47;}
	.st6{fill:#1E1E1E;}
	.st7{fill:none;stroke:#000000;stroke-linejoin:round;stroke-miterlimit:10;}
	.st8{opacity:0.11;fill:#666666;}
	.st9{opacity:0.17;}
	.st10{fill:none;stroke:#000000;stroke-linecap:round;stroke-linejoin:round;stroke-miterlimit:10;}
	.st11{fill:#FFFFFF;}
	.st12{fill:none;stroke:#000000;stroke-width:1.5;stroke-linecap:round;stroke-linejoin:round;stroke-miterlimit:10;}
	.st13{enable-background:new    ;}
	.st14{clip-path:url(#SVGID_2_);}
	.st15{clip-path:url(#SVGID_4_);}
</style>
<g id="DMNyHK.tif">
</g>
<g>
	<g>
		<g>
			<path class="st0" d="M104.9,151.6c5.4,0,13.5,0,23.2,0c19.9,0,50.6-0.2,69.7-6.9c2.2-0.8,5.6-2.1,8.4-4.8
				c4.9-4.8,4.2-10.8,3.7-14.5c-0.8-5.9-3.3-10.1-7.4-16.5c-8.4-13.1-12.6-19.6-13.9-20.7c-3.6-2.9-10.3-6.9-56.7-12.4
				c-10.8-1.3-19.8-2.2-26-2.8"/>
		</g>
		<g>
			<path class="st0" d="M105.9,151.6c-5.4,0-13.5,0-23.2,0c-19.9,0-50.6-0.2-69.7-6.9c-2.2-0.8-5.6-2.1-8.4-4.8
				c-4.9-4.8-4.2-10.8-3.7-14.5c0.8-5.9,3.3-10.1,7.4-16.5c8.4-13.1,12.6-19.6,13.9-20.7c3.6-2.9,10.3-6.9,56.7-12.4
				c10.8-1.3,19.8-2.2,26-2.8"/>
		</g>
	</g>
	<path class="st1" d="M109.5,5.1h-7.3c-1.1,0-2-0.9-2-2V2.5c0-1.1,0.9-2,2-2h7.3c1.1,0,2,0.9,2,2v0.7C111.5,4.3,110.6,5.1,109.5,5.1
		z"/>
	<g class="st2">
		<g>
			<path class="st3" d="M105.8,151.6c5.4,0,13.5,0,23.2,0c19.9,0,50.6-0.2,69.7-6.9c1.7-0.6,5.4-1.6,8.4-4.8
				c1.1-1.2,3.6-4.2,4.2-8.7c0.3-2.6-0.2-4.5-0.9-7.4c-0.7-2.8-2.1-6.7-4.6-11.2c1.4,3.9,4.8,15.3-0.9,23.2c-3.6,5-9.3,6.6-13,7.4
				c-24.6,5.6-78.5,4.8-86.5,4.6"/>
		</g>
		<g>
			<path class="st3" d="M105.9,151.6c-5.4,0-13.5,0-23.2,0c-19.9,0-50.6-0.2-69.7-6.9c-1.7-0.6-5.4-1.6-8.4-4.8
				c-1.1-1.2-3.6-4.2-4.2-8.7c-0.3-2.6,0.2-4.5,0.9-7.4c0.7-2.8,2.1-6.7,4.6-11.2c-1.4,3.9-4.8,15.3,0.9,23.2c3.6,5,9.3,6.6,13,7.4
				c24.6,5.6,78.5,4.8,86.5,4.6"/>
		</g>
	</g>
	<g>
		<g>
			<path class="st4" d="M104.9,151.6c5.4,0,13.5,0,23.2,0c19.9,0,50.6-0.2,69.7-6.9c2.2-0.8,5.6-2.1,8.4-4.8
				c4.9-4.8,4.2-10.8,3.7-14.5c-0.8-5.9-3.3-10.1-7.4-16.5c-8.4-13.1-12.6-19.6-13.9-20.7c-3.6-2.9-10.3-6.9-56.7-12.4
				c-10.8-1.3-19.8-2.2-26-2.8"/>
		</g>
		<g>
			<path class="st4" d="M105.9,151.6c-5.4,0-13.5,0-23.2,0c-19.9,0-50.6-0.2-69.7-6.9c-2.2-0.8-5.6-2.1-8.4-4.8
				c-4.9-4.8-4.2-10.8-3.7-14.5c0.8-5.9,3.3-10.1,7.4-16.5c8.4-13.1,12.6-19.6,13.9-20.7c3.6-2.9,10.3-6.9,56.7-12.4
				c10.8-1.3,19.8-2.2,26-2.8"/>
		</g>
	</g>
	<g class="st5">
		<g>
			<path class="st4" d="M105.8,139.2c4.3,0,10.6,0,18.4,0c15.7,0,40-0.2,55.1-5.1c1.7-0.6,4.4-1.6,6.6-3.6c3.8-3.6,3.3-8,2.9-10.7
				c-0.6-4.4-2.6-7.5-5.9-12.3c-6.7-9.7-10-14.6-11-15.3c-2.8-2.1-8.1-5.1-44.8-9.2c-8.5-1-15.6-1.6-20.6-2"/>
		</g>
		<g>
			<path class="st4" d="M106.8,139.2c-4.3,0-10.6,0-18.4,0c-15.7,0-40-0.2-55.1-5.1c-1.7-0.6-4.4-1.6-6.6-3.6
				c-3.8-3.6-3.3-8-2.9-10.7c0.6-4.4,2.6-7.5,5.9-12.3c6.7-9.7,10-14.6,11-15.3c2.8-2.1,8.1-5.1,44.8-9.2c8.5-1,15.6-1.6,20.6-2"/>
		</g>
	</g>
	<g class="st5">
		<g>
			<path class="st4" d="M105.8,144.3c4.7,0,11.7,0,20.2,0c17.2,0,43.9-0.2,60.5-6c1.9-0.7,4.9-1.8,7.3-4.2c4.2-4.2,3.6-9.4,3.2-12.6
				c-0.7-5.1-2.8-8.7-6.5-14.4c-7.3-11.4-11-17.1-12.1-17.9c-3.1-2.5-8.9-6-49.2-10.8c-9.4-1.1-17.2-1.9-22.6-2.4"/>
		</g>
		<g>
			<path class="st4" d="M106.8,144.3c-4.7,0-11.7,0-20.2,0c-17.2,0-43.9-0.2-60.5-6c-1.9-0.7-4.9-1.8-7.3-4.2
				c-4.2-4.2-3.6-9.4-3.2-12.6c0.7-5.1,2.8-8.7,6.5-14.4c7.3-11.4,11-17.1,12.1-17.9c3.1-2.5,8.9-6,49.2-10.8
				c9.4-1.1,17.2-1.9,22.6-2.4"/>
		</g>
	</g>
	<g class="st5">
		<g>
			<path class="st4" d="M105.8,141.9c4.5,0,11.1,0,19.2,0c16.4,0,41.7-0.2,57.5-5.7c1.8-0.6,4.6-1.7,6.9-4c4-4,3.5-8.9,3.1-11.9
				c-0.6-4.9-2.7-8.3-6.1-13.6c-7-10.8-10.4-16.2-11.5-17.1c-3-2.4-8.5-5.7-46.8-10.2c-8.9-1.1-16.3-1.8-21.5-2.3"/>
		</g>
		<g>
			<path class="st4" d="M106.8,141.9c-4.5,0-11.1,0-19.2,0c-16.4,0-41.7-0.2-57.5-5.7c-1.8-0.6-4.6-1.7-6.9-4c-4-4-3.5-8.9-3.1-11.9
				c0.6-4.9,2.7-8.3,6.1-13.6c7-10.8,10.4-16.2,11.5-17.1c3-2.4,8.5-5.7,46.8-10.2c8.9-1.1,16.3-1.8,21.5-2.3"/>
		</g>
	</g>
	<g>
		<g>
			<path class="st6" d="M105.5,121.8c34.7-1.6,60.7-6.4,72.1-10.7c0,0,12-4.2,19.5-13c1.9-2.2,2.8-4.6,2.8-4.6s1.1-2.9,0.9-6.5
				c-2.4-47.6-28.8-65.1-28.8-65.1c-9-5.9-20-9.3-23.2-10.2C142.6,9.8,138,9,132,7.9c-6.7-1.2-15.9-2.7-27-3.7"/>
			<path class="st7" d="M105.5,121.8c34.7-1.6,60.7-6.4,72.1-10.7c0,0,12-4.2,19.5-13c1.9-2.2,2.8-4.6,2.8-4.6s1.1-2.9,0.9-6.5
				c-2.4-47.6-28.8-65.1-28.8-65.1c-9-5.9-20-9.3-23.2-10.2C142.6,9.8,138,9,132,7.9c-6.7-1.2-15.9-2.7-27-3.7"/>
		</g>
		<g>
			<path class="st6" d="M105.4,121.8c-34.7-1.6-60.7-6.4-72.1-10.7c0,0-12-4.2-19.5-13c-1.9-2.2-2.8-4.6-2.8-4.6S10,90.5,10.1,87
				C12.5,39.4,39,21.9,39,21.9c9-5.9,20-9.3,23.2-10.2C68.3,9.8,72.9,9,78.9,7.9c6.7-1.2,15.9-2.7,27-3.7"/>
			<path class="st7" d="M105.4,121.8c-34.7-1.6-60.7-6.4-72.1-10.7c0,0-12-4.2-19.5-13c-1.9-2.2-2.8-4.6-2.8-4.6S10,90.5,10.1,87
				C12.5,39.4,39,21.9,39,21.9c9-5.9,20-9.3,23.2-10.2C68.3,9.8,72.9,9,78.9,7.9c6.7-1.2,15.9-2.7,27-3.7"/>
		</g>
	</g>
	<path class="st8" d="M36.6,112.5c-1.1-5.9-2.3-14.2-2.8-24.2c-0.6-11.4-1.2-24,1.9-36.3c1.8-7.2,7.5-24.5,27.9-40.9
		c-4.6,1.2-8.4,2.6-11.2,3.7c-4.5,1.9-9.6,4-14.9,8.4c-2.8,2.3-4.5,4.3-6.5,6.5C24.4,37,20.9,43.8,19,48.4c-2,4.8-3.2,9.3-4.6,14.9
		c-1.8,6.8-2.6,11.6-2.8,13c-1.3,8.3-2,12.4-0.9,15.8c1.9,6,6.5,9.5,11.2,13C27,109,32.2,111.2,36.6,112.5z"/>
	<path class="st9" d="M173.7,112.5c1.1-5.9,2.3-14.2,2.8-24.2c0.6-11.4,1.2-24-1.9-36.3c-1.8-7.2-7.5-24.5-27.9-40.9
		c4.6,1.2,8.4,2.6,11.2,3.7c4.5,1.9,9.6,4,14.9,8.4c2.8,2.3,4.5,4.3,6.5,6.5c6.6,7.2,10.2,14,12.1,18.6c2,4.8,3.2,9.3,4.6,14.9
		c1.8,6.8,2.6,11.6,2.8,13c1.3,8.3,2,12.4,0.9,15.8c-1.9,6-6.5,9.5-11.2,13C183.4,109,178.1,111.2,173.7,112.5z"/>
	<g>
		<g>
			<path class="st7" d="M105.5,121.8c34.7-1.6,60.7-6.4,72.1-10.7c0,0,12-4.2,19.5-13c1.9-2.2,2.8-4.6,2.8-4.6s1.1-2.9,0.9-6.5
				c-2.4-47.6-28.8-65.1-28.8-65.1c-9-5.9-20-9.3-23.2-10.2C142.6,9.8,138,9,132,7.9c-6.7-1.2-15.9-2.7-27-3.7"/>
		</g>
		<g>
			<path class="st7" d="M105.4,121.8c-34.7-1.6-60.7-6.4-72.1-10.7c0,0-12-4.2-19.5-13c-1.9-2.2-2.8-4.6-2.8-4.6S10,90.5,10.1,87
				C12.5,39.4,39,21.9,39,21.9c9-5.9,20-9.3,23.2-10.2C68.3,9.8,72.9,9,78.9,7.9c6.7-1.2,15.9-2.7,27-3.7"/>
		</g>
	</g>
	<path class="st10" d="M24.1,106.5c-0.1-10.4-0.1-19.3,0-26c0.2-18.8,0.7-23,1.9-27.9c1.2-4.9,3.3-13.1,9.3-21.4
		c8.7-12,20.6-17.3,27-19.5"/>
	<path class="st10" d="M185.8,106.5c0.1-10.4,0.1-19.3,0-26c-0.2-18.8-0.7-23-1.9-27.9c-1.2-4.9-3.3-13.1-9.3-21.4
		c-8.7-12-20.6-17.3-27-19.5"/>
	<line class="st7" x1="105.9" y1="4.2" x2="105.9" y2="121.4"/>
	<g>
		<path class="st11" d="M121.8,79.5c0-3,0-6,0-9.1c0-0.9,0-1.8,0-2.8c0-3,0-6,0-9.1c0-0.6,0.1-1.4,0.3-2.3c0.5-1.6,1.4-2.8,1.9-3.3
			c-1.8-0.2-4.8-0.9-7.8-3.1c-2.2-1.6-3.7-3.4-4.7-4.7c-0.9,0.8-2.2,1.9-4,2.9c-1.6,0.8-7,3.6-12.5,0.9c-4.7-2.3-6.5-7-6.9-8.1
			c-0.1,1.1-0.1,3,0.6,5.1c0.4,1.2,1.6,4.3,4.6,6.6c1.8,1.4,3.6,2.1,5.3,2.4c-0.9,0.7-1.9,1.5-2.6,2.6c-0.4,0.7-1,1.8-1.3,3.6
			c-1.5,0.3-3.8,1-5.3,2.5c-0.4,0.4-1.2,1.3-1,2c0.1,0.2,0.3,0.4,0.5,0.5c0.6,0.3,1.3-0.2,1.6-0.3c0.7-0.4,1.9-0.8,4-0.6
			c0,0.8,0,1.5,0,2.3c-0.4,0.1-1,0.2-1.6,0.4c-0.6,0.2-1.6,0.5-2.4,1.1c-1.4,1-2.3,2.6-1.9,3.1c0.1,0.1,0.2,0.1,0.3,0.2
			c0.5,0.2,0.9,0.1,1.1,0c0.7-0.2,1.1-0.4,1.6-0.6c0.5-0.3,1.4-0.5,2.9-0.2c0.2,3.6,0.2,6.4,0,7.9c-0.1,1.1-0.3,1.8-0.6,2.4
			c-0.2,0.4-0.4,0.8-0.8,1.2c-0.6,0.6-1.2,0.8-1.1,1.3c0,0.3,0.3,0.5,0.3,0.5c0.9,0.7,3-0.9,3.2-1c2.6-2,3.2-5,3.4-5.6
			c0.4,0.1,0.9,0.2,1.5,0.2c0.6,0,1.1,0,1.6,0c0,0.4,0,0.9,0,1.3c0,0.6-0.2,1.8-0.8,3c-0.5,0.9-1,1.4-1.5,1.7c0,0,0,0.1,0,0.1
			c-2,0-4.3,0.4-6.4,1.7c-3,1.8-4.2,4.5-4.6,5.6c-0.7,2-0.7,3.8-0.6,5c0.4-1,2.1-5.1,6.8-6.6c5.5-1.7,11,1,12.6,1.8
			c1.8,0.9,3.2,1.9,4,2.7c0.9-1.4,2.4-3.4,4.7-5.3c3.1-2.6,6-4,7.8-4.8c-0.5-0.4-1.4-1.3-1.9-2.9C121.9,80.9,121.8,80.1,121.8,79.5z
			 M100.4,76.4c-0.5,0-0.9-0.1-1.3-0.2c0-3.9,0-8.3,0.2-13.2c0-1,0.1-2.1,0.4-3.3c0.4,0,1,0,1.6,0.1c0.4,0.1,0.8,0.2,1.2,0.3
			c0,0.1-0.1,0.2-0.1,0.4c-0.2,0.9-0.3,1.6-0.3,2.2c0,4.6,0,9.2,0,13.7C101.6,76.4,101,76.5,100.4,76.4z M113,84.7
			c-1.2,0.8-2.2,1.7-2.9,2.3c-1.2-0.7-3.3-1.6-6-2.1c-0.5-0.1-1.1-0.2-1.9-0.3c0,0,0.1-0.1,0.1-0.1c0.7-0.5,1.7-1.2,2.6-2.6
			c0.2-0.3,0.8-1.2,1.1-2.7c0.3-1.1,0.3-2,0.3-2.7c0-0.9,0-1.7,0-2.6c1.2-0.4,2.8-0.8,4.6-0.9c2-0.1,3.7,0.1,4.9,0.3
			c0,3.2,0,6.4,0.1,9.6C115.2,83.4,114.1,83.9,113,84.7z M116,71c0,0,0,0.1,0,0.1c-1.2-0.2-2.9-0.4-4.9-0.3
			c-1.9,0.1-3.5,0.5-4.6,0.9c0-2.2,0.1-4.3,0.1-6.5c1.2,0.4,2.7,0.7,4.6,0.7c2,0,3.7-0.4,4.9-0.8c0,1,0,2.1,0,3.1c0,0.5,0,0.9,0,1.4
			C116,70.1,116,70.5,116,71z M116,62.7c-1.2,0.4-2.9,0.8-4.9,0.8c-1.9,0-3.4-0.3-4.6-0.7c0-1.4,0-2.8,0.1-4.2
			c0.2-0.6,0.4-1.3,0.7-1.9c0.7-1.4,1.4-2.5,2.1-3.4c-0.7,0.3-1.4,0.6-2.1,0.9c-1.4,0.9-2.3,1.9-2.9,2.7c-0.4,0.5-0.9,1.1-1.3,1.7
			c-0.5-0.2-1-0.3-1.6-0.4c-0.5-0.1-0.9-0.2-1.3-0.2c0.2-0.4,0.4-0.8,0.6-1.2c0.4-0.6,0.8-1.1,1.2-1.6c0.8,0,1.5-0.1,2-0.2
			c2.7-0.4,4.7-1.5,5.9-2.2c0.7,0.7,1.7,1.4,2.9,2.1c1.1,0.6,2.2,1,3,1.2C116,58.3,116,60.5,116,62.7z"/>
		<path class="st12" d="M121.8,79.5c0-3,0-6,0-9.1c0-0.9,0-1.8,0-2.8c0-3,0-6,0-9.1c0-0.6,0.1-1.4,0.3-2.3c0.5-1.6,1.4-2.8,1.9-3.3
			c-1.8-0.2-4.8-0.9-7.8-3.1c-2.2-1.6-3.7-3.4-4.7-4.7c-0.9,0.8-2.2,1.9-4,2.9c-1.6,0.8-7,3.6-12.5,0.9c-4.7-2.3-6.5-7-6.9-8.1
			c-0.1,1.1-0.1,3,0.6,5.1c0.4,1.2,1.6,4.3,4.6,6.6c1.8,1.4,3.6,2.1,5.3,2.4c-0.9,0.7-1.9,1.5-2.6,2.6c-0.4,0.7-1,1.8-1.3,3.6
			c-1.5,0.3-3.8,1-5.3,2.5c-0.4,0.4-1.2,1.3-1,2c0.1,0.2,0.3,0.4,0.5,0.5c0.6,0.3,1.3-0.2,1.6-0.3c0.7-0.4,1.9-0.8,4-0.6
			c0,0.8,0,1.5,0,2.3c-0.4,0.1-1,0.2-1.6,0.4c-0.6,0.2-1.6,0.5-2.4,1.1c-1.4,1-2.3,2.6-1.9,3.1c0.1,0.1,0.2,0.1,0.3,0.2
			c0.5,0.2,0.9,0.1,1.1,0c0.7-0.2,1.1-0.4,1.6-0.6c0.5-0.3,1.4-0.5,2.9-0.2c0.2,3.6,0.2,6.4,0,7.9c-0.1,1.1-0.3,1.8-0.6,2.4
			c-0.2,0.4-0.4,0.8-0.8,1.2c-0.6,0.6-1.2,0.8-1.1,1.3c0,0.3,0.3,0.5,0.3,0.5c0.9,0.7,3-0.9,3.2-1c2.6-2,3.2-5,3.4-5.6
			c0.4,0.1,0.9,0.2,1.5,0.2c0.6,0,1.1,0,1.6,0c0,0.4,0,0.9,0,1.3c0,0.6-0.2,1.8-0.8,3c-0.5,0.9-1,1.4-1.5,1.7c0,0,0,0.1,0,0.1
			c-2,0-4.3,0.4-6.4,1.7c-3,1.8-4.2,4.5-4.6,5.6c-0.7,2-0.7,3.8-0.6,5c0.4-1,2.1-5.1,6.8-6.6c5.5-1.7,11,1,12.6,1.8
			c1.8,0.9,3.2,1.9,4,2.7c0.9-1.4,2.4-3.4,4.7-5.3c3.1-2.6,6-4,7.8-4.8c-0.5-0.4-1.4-1.3-1.9-2.9C121.9,80.9,121.8,80.1,121.8,79.5z
			 M100.4,76.4c-0.5,0-0.9-0.1-1.3-0.2c0-3.9,0-8.3,0.2-13.2c0-1,0.1-2.1,0.4-3.3c0.4,0,1,0,1.6,0.1c0.4,0.1,0.8,0.2,1.2,0.3
			c0,0.1-0.1,0.2-0.1,0.4c-0.2,0.9-0.3,1.6-0.3,2.2c0,4.6,0,9.2,0,13.7C101.6,76.4,101,76.5,100.4,76.4z M113,84.7
			c-1.2,0.8-2.2,1.7-2.9,2.3c-1.2-0.7-3.3-1.6-6-2.1c-0.5-0.1-1.1-0.2-1.9-0.3c0,0,0.1-0.1,0.1-0.1c0.7-0.5,1.7-1.2,2.6-2.6
			c0.2-0.3,0.8-1.2,1.1-2.7c0.3-1.1,0.3-2,0.3-2.7c0-0.9,0-1.7,0-2.6c1.2-0.4,2.8-0.8,4.6-0.9c2-0.1,3.7,0.1,4.9,0.3
			c0,3.2,0,6.4,0.1,9.6C115.2,83.4,114.1,83.9,113,84.7z M116,71c0,0,0,0.1,0,0.1c-1.2-0.2-2.9-0.4-4.9-0.3
			c-1.9,0.1-3.5,0.5-4.6,0.9c0-2.2,0.1-4.3,0.1-6.5c1.2,0.4,2.7,0.7,4.6,0.7c2,0,3.7-0.4,4.9-0.8c0,1,0,2.1,0,3.1c0,0.5,0,0.9,0,1.4
			C116,70.1,116,70.5,116,71z M116,62.7c-1.2,0.4-2.9,0.8-4.9,0.8c-1.9,0-3.4-0.3-4.6-0.7c0-1.4,0-2.8,0.1-4.2
			c0.2-0.6,0.4-1.3,0.7-1.9c0.7-1.4,1.4-2.5,2.1-3.4c-0.7,0.3-1.4,0.6-2.1,0.9c-1.4,0.9-2.3,1.9-2.9,2.7c-0.4,0.5-0.9,1.1-1.3,1.7
			c-0.5-0.2-1-0.3-1.6-0.4c-0.5-0.1-0.9-0.2-1.3-0.2c0.2-0.4,0.4-0.8,0.6-1.2c0.4-0.6,0.8-1.1,1.2-1.6c0.8,0,1.5-0.1,2-0.2
			c2.7-0.4,4.7-1.5,5.9-2.2c0.7,0.7,1.7,1.4,2.9,2.1c1.1,0.6,2.2,1,3,1.2C116,58.3,116,60.5,116,62.7z"/>
	</g>
	<g>
		<g>
			<g class="st13">
				<defs>
					<polygon id="SVGID_1_" class="st13" points="64.2,32.2 65.2,24.3 72.8,25.1 71.8,32.9 					"/>
				</defs>
				<clipPath id="SVGID_2_">
					<use xlink:href="#SVGID_1_"  style="overflow:visible;"/>
				</clipPath>
				<g class="st14">
					<g>
						<g>
							<g>
								<path d="M68.7,26.9c-0.9-0.1-1.7,0.6-1.9,1.5c-0.1,0.9,0.5,1.8,1.4,1.9c0.9,0.1,1.7-0.6,1.9-1.5
									C70.2,27.9,69.6,27,68.7,26.9"/>
								<path d="M68.3,30.3c-0.9-0.1-1.5-0.9-1.4-1.9c0.1-0.9,1-1.6,1.9-1.5c0.9,0.1,1.5,0.9,1.4,1.9C70,29.7,69.2,30.4,68.3,30.3
									 M68.8,25.9c-1.4-0.1-2.7,0.9-2.9,2.4c-0.2,1.5,0.8,2.8,2.2,2.9c1.4,0.1,2.7-0.9,2.9-2.4C71.3,27.4,70.2,26.1,68.8,25.9"/>
								<path d="M68.1,31.6c-1.6-0.2-2.7-1.6-2.5-3.2c0.2-1.6,1.7-2.8,3.2-2.7c1.6,0.2,2.7,1.6,2.5,3.2
									C71.1,30.5,69.7,31.7,68.1,31.6 M69,24.7c-2.1-0.2-4,1.4-4.3,3.6c-0.3,2.2,1.2,4.1,3.3,4.3c2.1,0.2,4-1.4,4.3-3.6
									C72.6,26.8,71.1,24.9,69,24.7"/>
							</g>
						</g>
					</g>
				</g>
			</g>
		</g>
	</g>
	<g>
		<g>
			<g class="st13">
				<defs>
					<polygon id="SVGID_3_" class="st13" points="139.5,32.2 140.5,24.3 148.1,25.1 147.1,32.9 					"/>
				</defs>
				<clipPath id="SVGID_4_">
					<use xlink:href="#SVGID_3_"  style="overflow:visible;"/>
				</clipPath>
				<g class="st15">
					<g>
						<g>
							<g>
								<path d="M144,26.9c-0.9-0.1-1.7,0.6-1.9,1.5c-0.1,0.9,0.5,1.8,1.4,1.9c0.9,0.1,1.7-0.6,1.9-1.5
									C145.5,27.9,144.9,27,144,26.9"/>
								<path d="M143.6,30.3c-0.9-0.1-1.5-0.9-1.4-1.9c0.1-0.9,1-1.6,1.9-1.5c0.9,0.1,1.5,0.9,1.4,1.9
									C145.3,29.7,144.5,30.4,143.6,30.3 M144.1,25.9c-1.4-0.1-2.7,0.9-2.9,2.4c-0.2,1.5,0.8,2.8,2.2,2.9s2.7-0.9,2.9-2.4
									C146.6,27.4,145.6,26.1,144.1,25.9"/>
								<path d="M143.4,31.6c-1.6-0.2-2.7-1.6-2.5-3.2c0.2-1.6,1.7-2.8,3.2-2.7c1.6,0.2,2.7,1.6,2.5,3.2
									C146.4,30.5,145,31.7,143.4,31.6 M144.3,24.7c-2.1-0.2-4,1.4-4.3,3.6c-0.3,2.2,1.2,4.1,3.3,4.3c2.1,0.2,4-1.4,4.3-3.6
									C147.9,26.8,146.4,24.9,144.3,24.7"/>
							</g>
						</g>
					</g>
				</g>
			</g>
		</g>
	</g>
</g>
</svg>
