<?xml version="1.0" encoding="utf-8"?>
<!-- Generator: Adobe Illustrator 21.0.0, SVG Export Plug-In . SVG Version: 6.00 Build 0)  -->
<svg version="1.1" id="Layer_1" xmlns="http://www.w3.org/2000/svg" xmlns:xlink="http://www.w3.org/1999/xlink" x="0px" y="0px"
	 viewBox="0 0 282.5 235.9" style="enable-background:new 0 0 282.5 235.9;" xml:space="preserve">
<style type="text/css">
	.st0{fill:#333333;}
	.st1{opacity:0.19;fill:#FFFFFF;}
	.st2{opacity:0.5;fill:#FFFFFF;}
	.st3{fill:none;stroke:#000000;stroke-width:1.9872;stroke-linejoin:round;stroke-miterlimit:10;}
	.st4{fill:none;stroke:#000000;stroke-width:1.9872;stroke-miterlimit:10;}
	.st5{fill:#5C6D33;}
	.st6{fill:#05040A;}
	.st7{fill:#A29048;}
	.st8{fill:#3B3E37;}
	.st9{fill:#875736;}
	.st10{fill:#29351A;}
	.st11{enable-background:new    ;}
	.st12{clip-path:url(#SVGID_2_);}
	.st13{opacity:0.49;}
	.st14{opacity:0.16;}
	.st15{opacity:0.17;fill:#FFFFFF;}
	.st16{opacity:9.000000e-02;fill:#FFFFFF;}
	.st17{fill:none;stroke:#000000;stroke-width:2.9808;stroke-miterlimit:10;}
	.st18{fill:#FBB03B;stroke:#000000;stroke-width:1.9872;stroke-linecap:round;stroke-linejoin:round;stroke-miterlimit:10;}
	.st19{opacity:0.39;}
	.st20{fill:#6B4A1F;}
	.st21{opacity:0.35;fill:#F4E1C9;}
	.st22{fill:none;stroke:#000000;stroke-width:1.9872;stroke-linecap:round;stroke-linejoin:round;stroke-miterlimit:10;}
	.st23{fill:#333333;stroke:#1A1A1A;stroke-width:1.9872;stroke-linecap:round;stroke-linejoin:round;stroke-miterlimit:10;}
	.st24{fill:none;stroke:#000000;stroke-width:2.9808;stroke-linecap:round;stroke-miterlimit:10;}
	.st25{fill:none;stroke:#00FF00;stroke-width:0.9936;stroke-miterlimit:10;}
	.st26{clip-path:url(#SVGID_4_);}
	.st27{fill:#1A1A1A;}
	.st28{fill:#FFFFFF;}
</style>
<g>
	<path d="M228.5,235.9"/>
	<g>
		<path class="st0" d="M146.7,177.3l-17.9-8.7c-1.3-0.7-3-0.1-3.6,1.2l-2.9,5.9c-0.9,0.4-2,1.1-3.2,1.9c-0.6,0.5-1.1,0.9-1.6,1.4
			l-2.9,5.9c-0.7,1.3-0.1,3,1.2,3.6l22.3,10.9c1.3,0.7,3,0.1,3.6-1.2l2.9-5.9c0-0.7,0.1-1.4,0.1-2.1c0.1-1.1,0.1-2.3,0.2-3.4
			l2.9-5.9C148.6,179.6,148.1,178,146.7,177.3z"/>
		<path class="st1" d="M139.6,200.2c-8.3-4-16.6-7.9-24.8-11.9c-0.1-0.9-0.1-1.9,0-3c0.3-2.7,1.2-4.7,2-6c2.3,2.6,6.4,6.8,12.9,9.9
			c6,2.9,11.5,3.7,14.9,4C142.9,195.6,141.3,197.9,139.6,200.2z"/>
		<rect x="137" y="173.8" transform="matrix(0.901 0.4338 -0.4338 0.901 91.8865 -42.4634)" class="st2" width="4" height="12.6"/>
		
			<rect x="127.9" y="169.7" transform="matrix(0.901 0.4338 -0.4338 0.901 89.0018 -38.9517)" class="st2" width="4" height="11.7"/>
		<path class="st3" d="M146.7,177.3l-17.9-8.7c-1.3-0.7-3-0.1-3.6,1.2l-2.9,5.9c-0.9,0.4-2,1.1-3.2,1.9c-0.6,0.5-1.1,0.9-1.6,1.4
			l-2.9,5.9c-0.7,1.3-0.1,3,1.2,3.6l22.3,10.9c1.3,0.7,3,0.1,3.6-1.2l2.9-5.9c0-0.7,0.1-1.4,0.1-2.1c0.1-1.1,0.1-2.3,0.2-3.4
			l2.9-5.9C148.6,179.6,148.1,178,146.7,177.3z"/>
		<line class="st3" x1="119.7" y1="177.4" x2="144.6" y2="189.3"/>
		<path class="st4" d="M151.3,181.4L123,167.6c-1.3-0.7-1.9-2.3-1.3-3.6l2.8-5.8c0.7-1.3,2.3-1.9,3.6-1.3l28.3,13.8
			c1.3,0.7,1.9,2.3,1.3,3.6l-2.8,5.8C154.2,181.5,152.6,182,151.3,181.4z"/>
		<path class="st5" d="M238.5,196.7c-20.5-1.1-35.6-5.2-45.7-7.9c-14.5-4-36.6-10.1-56.1-23.3c-3.5-2.4-12.6-8.8-26.3-16.8
			c-5.5-3.2-10-5.8-12.5-7c-28.6-14.6-44.7-22.8-67.6-25.8c-8.7-1.1-28.2-2.9-28.8-7.9c-0.1-0.7,0.2-2,1-3c1.8-2,5.3-1.1,8.9-1
			c0,0,3.3,0.1,11.9-2c3.2-0.8,10.7-3.5,18.9-15.9c3.6-10.5,15.5-40.5,46.7-59.6c22.9-14,44.8-15.2,58.6-15.9
			c14-0.7,45.1-1.8,76.5,17.9c8.2,5.1,28.2,17.9,40.7,42.7c12.4,24.4,13.5,52.7,10.4,71c-1.1,6.3-4.7,24-5,48.7c0,2.1,0,3.8,0,5
			C262.1,196.7,251.3,197.4,238.5,196.7z"/>
		<path class="st6" d="M228,120.2c-9.2-2.8-23.1-5.4-39.2-3c-4.7,0.7-9.1,1.8-12.9,3c-0.3-2.6-1.2-6.2-4-7.9
			c-5.4-3.3-12.9,3.7-15.9,1c-3.1-2.8,1.2-13.8,5-19.9c1.3-2,2.6-3.7,4-7c2-4.7,1.2-6.2,3-7.9c3-3,6.5-0.2,9.9-3
			c3.5-2.8,1.5-6.8,5-9.9c3.6-3.2,8-0.9,9.9-3c1.9-2.1,0.9-8.1-10.9-24.8c0-0.7,0.6-11.3,8.9-15.9c8.3-4.6,18.1,0.1,22.9,5
			c3.8,3.8,4.9,8.1,6,11.9c3.9,14.5-2.2,27.1,2,33.8c0.3,0.5,1.7,2.6,1,4c-0.8,1.6-3.8,1.1-4,2c-0.3,1.2,4.6,3.2,6,4
			C229,84.9,232.3,93.6,228,120.2z"/>
		<path class="st7" d="M129.2,98.4c-13.8,0.7-13.2,3-33.3,4.5c-4,0.3-7.3,0.4-9.4,0.5c-7.5-0.4-13.7-3.6-14.9-7.9
			c-1.6-6.2,7.3-13.6,14.9-15.9c4.1-1.2,4.3,0.1,10.9-1c10.3-1.7,16.2-6,17.9-4c1.2,1.5-1.4,4.4,0,6c1.2,1.4,4.1-0.2,9.9-1
			c1-0.1,5-0.1,12.9,0c5.4,0.1,6.5,0.1,7.9,1c2.4,1.5,4.4,4.7,4,7.9c-0.5,3.7-3.8,5.7-6,7C139.2,98.3,134.7,98.1,129.2,98.4z"/>
		<path class="st8" d="M148.6,127.7c0.9,0.5,7.8,4.6,14.4,1.5c1.7-0.8,3-1.9,4-3c4.4-2.2,6.3-6.7,5-9.9c-1.2-2.9-4.5-3.8-5-4
			c-4.5,0-7.9,1.1-9.9,2c-3.7,1.6-2.3,2-9.9,7c-1.7,1.1-3,1.9-3,3C144.1,126.1,147.7,127.4,148.6,127.7z"/>
		<path class="st9" d="M231.5,152c-15.8-13.5-24.1-18.2-28.8-19.9c-3.3-1.2-7.8-1.9-10.9-6c-1.5-1.9-2.4-4.4-5-5c-1.6-0.4-3.6,0-4,1
			c-0.6,1.5,3.5,3.4,3,5c-0.4,1.5-4.6,1.9-7.9,1c-2.5-0.7-6.6-2.8-7-6c-0.3-2.8,2.5-4,2-6c-1-3.3-10-1.2-11.9-5
			c-1.6-3,3.7-5.3,6-14.9c0.5-2.2,1-5.2,3-6c1.6-0.6,3,0.7,4,0c1.3-1-0.6-4,0-7c0.9-4.5,7.3-6.7,10.9-7.9c3.6-1.3,11.1-3.8,15.9,0
			c1.7,1.4,3.7,4,3,6c-1.2,3.4-9.9,2.6-9.9,4c0,0.8,2.9,2,6,2c3.1-0.1,5.9-1.4,8.9-3c3.1-1.6,3.9-2.4,5-2c1.9,0.7,1,4.1,3,6
			c2.8,2.7,8.2-0.6,10.9,0C232.5,89.6,235.2,105.3,231.5,152z"/>
		<path class="st10" d="M139.1,126.2c-24.2-7.3-48.4-14.6-72.5-21.9c-0.3-3-0.7-6-1-8.9c2.1-1.2,5.4-2.6,8.9-2
			c4.7,0.9,7.7,4.9,8.9,4c1.1-0.8-1.3-4.1,0-6c1.9-2.6,10.4-1.5,12.9,3c1.8,3.3-0.4,7.2,1,7.9c1.6,0.8,3.9-4.1,8.9-5
			c3.4-0.6,3.8,1.5,8.9,2c6.2,0.6,9-2.1,11.9,0c1.4,1,2.5,3,2,4c-0.8,1.6-4.7-0.2-7,2c-1.3,1.3-1.9,3.7-1,5c1.5,2.2,7.2,0.5,8.9,0
			c6.1-1.8,7.5-4.6,10.9-4c2.3,0.4,4.1,2.2,5,4c1.6,3.5-0.5,7.3-2,9.9C142.5,123.2,140.5,125.1,139.1,126.2z"/>
		<path class="st10" d="M92.4,29.8c-0.4-0.9-1.2-2.1-2.5-2.5c-2.1-0.7-4.2,1.1-7.9,4c-7.9,6.2-7,5.1-8.4,6.5
			C68.4,42.5,60,52.5,50.7,66.6c6.4-1.7,11.2-3.8,14.4-5.5c7.3-3.7,7.6-5.6,12.4-6.5c2.8-0.5,6.2-0.5,7.9-3c0.9-1.2,0.9-2.5,1-3
			C86.7,45.8,88,40.4,92.4,29.8z"/>
		<path class="st9" d="M66.6,86.4c-2.5,2.5-5.1,5-8.9,6c-3.7,0.9-8.8,0.5-9.9-2c-1-2.3,2.7-4.1,3-8.9c0.4-5.5-4.1-8.7-3-9.9
			c1.3-1.4,8.2,1.1,8.9,5c0.5,2.7-2.3,5.2-1,7c0.5,0.7,1.3,1,2,1c2.2,0.1,3.5-3,6-6c0.5-0.6,0.6-0.7,7-6c9.6-8,11.6-9.7,13.9-12.9
			c1.7-2.3,1.1-2.1,3-5c6.3-9.5,15.4-16.2,16.9-14.9c0.2,0.2,0.4,0.7,0,2C94.3,50.1,91.5,54,92.4,55.6c0.9,1.7,5.7,0.7,6,2
			c0.2,1-2.3,2.3-4,3c-1.6,0.6-2.2,0.4-4,1c-1.7,0.6-2.8,1.3-4,2c-2.2,1.4-7.6,4.8-7,7c0.5,1.7,4.2,1,5,3c0.6,1.8-1.4,4.7-4,6
			c-3.1,1.5-4.7-0.3-7.9,1C70,81.5,70.2,82.9,66.6,86.4z"/>
		<path class="st10" d="M177.9,52.7c-0.9,3.1,1.3,5.3,0,7c-1.9,2.4-8.3-0.4-8.9,1c-0.7,1.5,6.6,5.2,6,7c-0.6,1.6-7.8,2.4-11.9-1
			c-1.4-1.1-2.9-3.2-6-4c-0.5-0.1-1.7-0.4-2,0c-0.7,1,4.6,4.6,4,6c-0.6,1.3-7.3,0.9-10.9-3c-1.7-1.8-3.2-5-4-7.9c-0.6-2.3-0.6-4-2-5
			c-1.3-0.9-3.5-0.9-4,0c-0.9,1.6,4,5,3,7c-0.5,0.9-1.9,0.9-3,1c-0.3,0-4.8,0.2-7.9-3c-3.6-3.6-3.5-9.8-2-13.9
			c2.4-6.5,8.8-9.5,7.9-10.9c-0.3-0.5-1.5-0.5-4,0c-8.8,1.7-13.3,2.6-15.9,6c-2.8,3.6-1.5,6.7-5,8.9c-0.5,0.3-2.7,1.8-5,1
			c-1.9-0.7-2.8-2.6-3-3c-1.9-4.5,2.4-10.6,4-12.9c2.8-4,5.6-5.9,5-7c-0.7-1.2-4.4,0.8-7.9-1c-2.1-1.1-3.3-3.2-4-5
			c5.6-2.2,13.8-4.9,23.8-7c31.7-6.5,57-0.9,64.6,1c9.6,2.4,23.5,6.9,38.8,15.9c24.5,20.4,29.7,26.6,28.8,27.8c-0.7,1-6.5,0-7.9-3
			c-0.6-1.1-0.6-2.6-2-4c-0.1-0.1-1.4-1.3-2-1c-1.1,0.7,1.8,6.5,1,7c-0.8,0.4-4.8-4.4-7.9-8.9c-2.6-3.8-3-5.2-5-6
			c-2.8-1.1-4.9,0.6-7-1c-1.3-1-1.1-2.1-2-4c-1.4-3-4.3-4.6-9.9-7.9c-3.2-1.8-5-2.9-7.9-4c-5.7-2-8.5-3.1-10.9-2
			c-6.6,2.9-1.2,17.4-9.9,23.8C182.1,48.7,178.8,49.4,177.9,52.7z"/>
		<g>
			<g>
				<g class="st11">
					<defs>
						<polygon id="SVGID_1_" class="st11" points="86.3,95.2 103.1,22.7 175.5,30 159.8,102.9 						"/>
					</defs>
					<clipPath id="SVGID_2_">
						<use xlink:href="#SVGID_1_"  style="overflow:visible;"/>
					</clipPath>
					<g class="st12">
						<g>
							<g>
								<g>
									<path d="M107.1,41.8c-0.3,0-0.5-0.1-0.8-0.2c-0.3-0.1-0.6-0.2-0.9-0.3c-0.3-0.1-0.6-0.3-0.9-0.4c-0.3-0.2-0.6-0.4-1-0.6
										c0.1-0.4,0.3-0.7,0.4-1.1c0.1-0.3,0.3-0.7,0.5-1c0.2-0.3,0.3-0.7,0.5-1c0.2-0.3,0.3-0.7,0.5-1c0.2,0,0.3,0,0.5,0
										c0.2,0,0.3,0,0.5,0c0.2,0,0.3,0,0.5-0.1s0.3,0,0.5-0.1c0.3,0,0.6,0,0.8,0c0.3,0,0.5,0,0.7,0c0.2,0,0.5,0,0.7,0
										c0.2,0,0.4,0,0.6,0c0.4,0,0.8,0.1,1.1,0.2c0.3,0.1,0.6,0.2,0.8,0.4c0.2,0.1,0.3,0.3,0.4,0.5c0.1,0.2,0.1,0.4,0,0.7
										c-0.2,0.5-0.4,0.9-0.6,1.3c-0.2,0.4-0.5,0.7-0.8,1.1c-0.3,0.3-0.6,0.6-1,0.8c-0.4,0.2-0.7,0.5-1.1,0.6
										c-0.1,0.1-0.3,0.1-0.4,0.2c-0.2,0-0.3,0.1-0.5,0.1s-0.3,0-0.5,0C107.4,41.8,107.3,41.8,107.1,41.8 M106.7,33.4
										c0.2-0.5,0.5-1,0.7-1.4c0.2-0.5,0.5-1,0.7-1.4c0.2-0.5,0.4-0.9,0.6-1.4c0.2-0.5,0.4-0.9,0.6-1.4c0.3,0,0.5,0,0.8-0.1
										c0.2,0,0.5,0,0.7,0s0.4,0,0.6,0s0.4,0,0.5,0c0.2,0,0.4,0.1,0.6,0.1c0.2,0,0.3,0.1,0.5,0.2c0.1,0.1,0.2,0.1,0.3,0.2
										c0.1,0.1,0.1,0.2,0.2,0.3c0.1,0.3,0.1,0.6,0,0.9c0,0.3-0.2,0.6-0.3,0.9c-0.2,0.3-0.4,0.6-0.7,0.8c-0.3,0.3-0.6,0.5-1,0.8
										c-0.3,0.2-0.5,0.3-0.9,0.4c-0.3,0.1-0.7,0.3-1.1,0.4c-0.4,0.1-0.8,0.2-1.3,0.4C107.7,33.2,107.2,33.3,106.7,33.4 M109.4,24
										c-0.5-0.1-1-0.1-1.5-0.1c-0.5,0-0.9,0-1.4,0c-0.4,0-0.9,0.1-1.3,0.1c-0.4,0.1-0.8,0.2-1.2,0.3c-0.1,0-0.1,0.1-0.2,0.2
										c0,0.1-0.1,0.2-0.1,0.4c0,0.2-0.1,0.3-0.1,0.5c0,0.2,0,0.4,0,0.7c0,0.2,0,0.4,0,0.6c0,0.2,0.1,0.3,0.1,0.5
										c0.1,0.1,0.1,0.2,0.2,0.3c0.1,0.1,0.2,0.1,0.3,0.1c0,0,0,0,0,0c0,0,0,0,0,0c0,0,0,0,0,0s0,0,0,0c-0.3,0.8-0.5,1.5-0.8,2.3
										c-0.3,0.7-0.5,1.4-0.8,2.1c-0.3,0.7-0.5,1.3-0.8,2c-0.3,0.6-0.5,1.2-0.8,1.8c-0.3,0.7-0.6,1.4-0.9,2.1
										c-0.3,0.7-0.6,1.3-0.8,2c-0.3,0.6-0.5,1.3-0.8,1.9c-0.2,0.6-0.5,1.2-0.7,1.8c0,0.1,0.1,0.2,0.2,0.3
										c0.1,0.1,0.2,0.2,0.3,0.3c0.1,0.1,0.3,0.2,0.5,0.2c0.2,0.1,0.4,0.1,0.7,0.2c0.1,0,0.1,0,0.2,0c0.1,0,0.1,0,0.2,0
										c0.1,0,0.1,0,0.2,0s0.1,0,0.1,0c0.2,0,0.3,0,0.4,0c0.1,0,0.2,0,0.3-0.1s0.2-0.1,0.2-0.2c0.1-0.1,0.1-0.2,0.1-0.3
										c0.2,0.2,0.5,0.3,0.7,0.4c0.2,0.1,0.5,0.2,0.7,0.3c0.3,0.1,0.5,0.2,0.8,0.2c0.3,0.1,0.5,0.1,0.8,0.1c0.2,0,0.5,0,0.7,0
										c0.2,0,0.5,0,0.8,0s0.5-0.1,0.8-0.1c0.3,0,0.5-0.1,0.8-0.2c0.8-0.2,1.5-0.5,2.1-0.8c0.7-0.3,1.3-0.7,1.8-1.2
										c0.5-0.5,1-1,1.5-1.6c0.4-0.6,0.8-1.3,1.1-2c0.3-0.7,0.4-1.3,0.5-1.9c0.1-0.6,0.1-1.1,0.1-1.6c-0.1-0.5-0.2-0.9-0.4-1.2
										c-0.2-0.3-0.5-0.6-0.8-0.9c0,0-0.1,0-0.1-0.1c0,0-0.1,0-0.1-0.1c0,0-0.1,0-0.1,0c0,0-0.1,0-0.1,0c0.5-0.4,1-0.8,1.4-1.2
										c0.4-0.4,0.7-0.8,1-1.3c0.3-0.4,0.5-0.9,0.6-1.4c0.1-0.5,0.2-1,0.2-1.5c0-0.4-0.1-0.8-0.3-1.2c-0.2-0.4-0.4-0.7-0.6-1
										c-0.3-0.3-0.6-0.5-1-0.8c-0.4-0.2-0.9-0.4-1.4-0.6c-0.3-0.1-0.7-0.2-1-0.2c-0.3-0.1-0.7-0.1-1-0.2c-0.3-0.1-0.6-0.1-1-0.2
										C110,24,109.7,24,109.4,24"/>
									<path d="M122.9,43.8c-0.4,0-0.6-0.2-0.8-0.4c-0.2-0.2-0.2-0.6-0.2-1c0-0.4,0.1-0.9,0.3-1.6c0.2-0.6,0.5-1.3,0.9-2.1
										c0.8-1.2,1.5-2.2,2.2-3.2c0.7-1,1.4-1.9,2-2.7c0.6-0.8,1.3-1.5,1.8-2.2c0.6-0.6,1.1-1.2,1.7-1.7c0.1,0,0.2,0,0.2,0
										c0.1,0,0.2,0,0.2,0c0.1,0,0.1,0,0.2,0c0.1,0,0.1,0,0.2,0c0.6,0.1,1,0.2,1.3,0.5c0.3,0.3,0.5,0.7,0.5,1.2
										c0.1,0.5,0,1.1-0.2,1.8c-0.2,0.7-0.5,1.5-1,2.5c-0.7,1.2-1.5,2.2-2.2,3.2c-0.7,1-1.4,1.8-2.1,2.5c-0.7,0.7-1.4,1.4-2.1,1.9
										c-0.7,0.5-1.4,0.9-2,1.2c-0.1,0-0.2,0-0.3,0.1c-0.1,0-0.2,0-0.3,0s-0.2,0-0.2,0C123,43.8,123,43.8,122.9,43.8 M134,25.8
										c-0.1,0-0.2,0-0.3,0c-0.1,0-0.2,0-0.3,0s-0.2,0-0.3,0c-0.1,0-0.2,0-0.3,0c-0.2,0-0.4,0.1-0.5,0.1c-0.2,0-0.3,0.1-0.5,0.1
										c-0.2,0-0.3,0.1-0.5,0.1s-0.3,0.1-0.5,0.1c-0.1-0.1-0.2-0.1-0.3-0.2c-0.1,0-0.2-0.1-0.2-0.1s-0.2-0.1-0.2-0.1
										c-0.1,0-0.1,0-0.2,0c0,0-0.1,0-0.1,0c0,0-0.1,0-0.1,0c0,0-0.1,0-0.1,0c0,0-0.1,0-0.1,0.1c-1.8,1.4-3.3,2.8-4.6,4.2
										c-1.3,1.4-2.4,2.8-3.3,4.1c-0.9,1.4-1.6,2.7-2,4.1c-0.5,1.3-0.7,2.7-0.7,4c0,0.7,0.1,1.4,0.3,1.9c0.2,0.6,0.4,1,0.6,1.4
										c0.3,0.4,0.6,0.7,0.9,0.9c0.4,0.2,0.8,0.4,1.3,0.4c0.1,0,0.2,0,0.3,0c0.1,0,0.2,0,0.4,0c0.1,0,0.2,0,0.4,0
										c0.1,0,0.3,0,0.4-0.1c0.2,0,0.5-0.1,0.7-0.2c0.3-0.1,0.6-0.3,1-0.5c0.4-0.2,0.8-0.4,1.2-0.7c0.4-0.3,0.9-0.6,1.5-0.9
										c1.3-0.9,2.4-1.9,3.4-2.9c1-1,1.9-2.1,2.6-3.3c0.7-1.2,1.4-2.4,1.9-3.7c0.5-1.3,0.9-2.7,1.1-4.1c0.1-0.8,0-1.4,0-2
										c-0.1-0.6-0.2-1.1-0.5-1.5c-0.2-0.4-0.5-0.7-0.9-0.9C134.9,26,134.5,25.8,134,25.8"/>
									<path d="M144.3,39.6c0-0.1,0.1-0.2,0.1-0.3c0-0.1,0.1-0.2,0.1-0.3c0-0.1,0.1-0.2,0.1-0.3s0.1-0.2,0.1-0.3
										c0.3-0.5,0.5-1.1,0.7-1.6c0.2-0.5,0.5-1.1,0.7-1.6c0.2-0.5,0.5-1.1,0.7-1.6c0.2-0.5,0.4-1.1,0.6-1.6c0.2,0,0.4,0,0.6,0
										c0.2,0,0.4,0,0.6,0s0.4,0,0.5,0s0.3,0,0.5,0c0.4,0,0.7,0.1,1,0.2c0.3,0.1,0.5,0.2,0.7,0.3c0.2,0.1,0.3,0.2,0.4,0.3
										c0.1,0.1,0.2,0.3,0.2,0.4c0,0.4-0.1,0.8-0.2,1.2c-0.1,0.4-0.2,0.8-0.4,1.1c-0.2,0.4-0.4,0.7-0.6,1.1
										c-0.2,0.3-0.5,0.7-0.8,1c-0.2,0.2-0.5,0.5-0.9,0.7c-0.4,0.2-0.8,0.4-1.3,0.6c-0.5,0.2-1.1,0.3-1.7,0.4
										C145.7,39.5,145,39.6,144.3,39.6 M145.2,27.9c-0.1,0-0.1,0-0.2,0c-0.1,0-0.1,0-0.2,0c-0.1,0-0.1,0-0.2,0s-0.1,0-0.2,0
										c-0.2,0-0.4,0-0.5,0c-0.2,0-0.4,0-0.5,0c-0.2,0-0.3,0-0.5,0c-0.2,0-0.3,0-0.5,0c-0.1,0-0.1,0.1-0.2,0.2
										c0,0.1-0.1,0.3-0.1,0.4c0,0.2-0.1,0.4-0.1,0.7c0,0.3,0,0.5,0,0.9c0,0.3,0,0.5,0,0.7c0,0.2,0.1,0.4,0.1,0.5
										c0.1,0.1,0.1,0.3,0.2,0.3c0.1,0.1,0.2,0.1,0.3,0.2c-0.2,0.7-0.5,1.4-0.7,2.1c-0.2,0.7-0.5,1.3-0.7,1.9
										c-0.2,0.6-0.5,1.2-0.7,1.8c-0.2,0.6-0.5,1.1-0.7,1.7c-0.3,0.7-0.6,1.5-0.9,2.2c-0.3,0.7-0.6,1.4-0.9,2.1
										c-0.3,0.7-0.6,1.4-0.8,2.1c-0.3,0.7-0.5,1.4-0.8,2.1c0,0.1,0.1,0.1,0.2,0.2c0.1,0.1,0.2,0.1,0.4,0.2
										c0.2,0.1,0.4,0.1,0.6,0.2s0.5,0.1,0.8,0.2c0.1,0,0.2,0,0.3,0.1s0.2,0,0.3,0.1s0.2,0,0.2,0c0.1,0,0.1,0,0.2,0
										c0.1,0,0.2,0,0.3,0c0.1,0,0.2,0,0.2,0c0.1,0,0.1,0,0.2-0.1s0.1-0.1,0.1-0.1c0.2-0.5,0.3-0.9,0.5-1.3
										c0.2-0.4,0.3-0.9,0.5-1.3c0.2-0.4,0.3-0.8,0.5-1.3c0.2-0.4,0.4-0.8,0.5-1.2c0.1,0,0.2,0,0.3-0.1c0.1,0,0.2,0,0.3-0.1
										s0.2,0,0.3-0.1c0.1,0,0.2,0,0.3-0.1c0.2,0.6,0.5,1.1,0.8,1.7c0.3,0.6,0.7,1.1,1.2,1.6c0.4,0.5,0.9,1,1.5,1.5
										c0.6,0.5,1.2,1,1.8,1.4c0.1,0,0.1,0.1,0.2,0.1c0.1,0,0.1,0.1,0.2,0.1c0.1,0,0.1,0,0.2,0.1s0.1,0,0.2,0c0.1,0,0.2,0,0.3,0
										c0.1,0,0.1-0.1,0.2-0.1c0.1-0.1,0.1-0.1,0.2-0.2s0.1-0.2,0.1-0.3c-0.5-0.7-0.9-1.3-1.2-2c-0.3-0.6-0.6-1.2-0.9-1.8
										c-0.2-0.6-0.4-1.1-0.6-1.7c-0.1-0.5-0.2-1-0.3-1.5c0.6-0.2,1.1-0.4,1.7-0.6c0.5-0.2,1-0.4,1.5-0.7c0.5-0.2,0.9-0.5,1.3-0.7
										c0.4-0.3,0.7-0.5,1.1-0.8c0.6-0.5,1.1-1,1.5-1.5c0.4-0.5,0.8-1,1-1.6c0.3-0.5,0.5-1.1,0.6-1.6c0.1-0.6,0.2-1.1,0.2-1.7
										c0-0.5-0.1-0.9-0.3-1.3c-0.2-0.4-0.4-0.7-0.7-1.1c-0.3-0.3-0.7-0.6-1.1-0.8c-0.4-0.2-0.9-0.5-1.5-0.6
										c-0.6-0.1-1.1-0.3-1.7-0.4c-0.6-0.1-1.2-0.2-1.8-0.3c-0.6-0.1-1.2-0.2-1.9-0.3C146.5,28.1,145.9,28,145.2,27.9"/>
									<path d="M163.8,29.4c-0.1,0-0.2,0-0.3,0c-0.1,0-0.1,0.1-0.2,0.1c-0.1,0.1-0.1,0.1-0.2,0.2c0,0.1-0.1,0.2-0.1,0.3
										c-0.1,0.4-0.3,1-0.5,1.7c-0.2,0.7-0.5,1.5-0.9,2.4c-0.4,0.9-0.8,1.9-1.3,3c-0.5,1.1-1,2.4-1.7,3.7
										c-0.6,1.4-1.2,2.6-1.6,3.6c-0.5,1.1-0.8,1.9-1.2,2.7c-0.3,0.7-0.5,1.3-0.7,1.8c-0.2,0.4-0.2,0.7-0.2,0.9
										c0.3,0.2,0.6,0.3,0.9,0.4c0.3,0.1,0.5,0.2,0.8,0.3c0.2,0.1,0.5,0.2,0.6,0.2s0.4,0.1,0.5,0.1c0.1,0,0.2,0,0.2,0
										c0.1,0,0.1,0,0.2,0s0.1,0,0.1-0.1c0,0,0.1-0.1,0.1-0.1c0.1-0.4,0.2-0.9,0.4-1.5c0.2-0.6,0.5-1.4,0.8-2.3
										c0.3-0.9,0.7-1.9,1.2-3c0.5-1.1,1-2.4,1.6-3.8c0,1,0,1.9,0.1,2.9c0.1,0.9,0.1,1.8,0.2,2.7c0.1,0.9,0.2,1.7,0.4,2.6
										c0.1,0.8,0.3,1.7,0.5,2.4c0,0.1,0.1,0.2,0.2,0.3c0.1,0.1,0.2,0.2,0.4,0.3c0.2,0.1,0.4,0.2,0.6,0.2c0.2,0.1,0.5,0.1,0.7,0.2
										c0.1,0,0.1,0,0.2,0c0,0,0.1,0,0.1,0s0.1,0,0.1,0c0,0,0.1,0,0.1,0c0.2,0,0.3,0,0.5,0c0.1,0,0.2-0.1,0.3-0.1
										c0.1-0.1,0.2-0.1,0.2-0.2c0.1-0.1,0.1-0.2,0.1-0.3c0.1-0.5,0.3-1.1,0.4-1.7c0.2-0.6,0.4-1.3,0.7-2c0.3-0.7,0.6-1.5,0.9-2.4
										c0.4-0.9,0.8-1.8,1.2-2.7c0.5-1,0.9-2,1.3-2.9c0.4-1,0.8-1.9,1.2-2.8c0.4-0.9,0.7-1.8,1.1-2.7c0.3-0.9,0.7-1.7,1-2.6
										c-0.3-0.1-0.5-0.2-0.8-0.3c-0.2-0.1-0.5-0.2-0.7-0.2c-0.2-0.1-0.4-0.1-0.6-0.2c-0.2,0-0.3-0.1-0.4-0.1c-0.1,0-0.1,0-0.2,0
										c-0.1,0-0.1,0-0.1,0c0,0-0.1,0-0.1,0s-0.1,0-0.1,0.1c-0.3,1-0.7,2-1.1,3c-0.4,1-0.8,2-1.2,3.1c-0.4,1-0.9,2.1-1.4,3.2
										c-0.5,1.1-1,2.2-1.6,3.3c0-0.5,0-0.9,0-1.3c0-0.4,0-0.8,0-1.2c0-0.4,0-0.8,0-1.1c0-0.4,0-0.7,0-1.1c0-0.8,0.1-1.5,0.1-2.1
										c0.1-0.7,0.1-1.3,0.2-1.9c0.1-0.6,0.1-1.1,0.2-1.7c0.1-0.5,0.1-1,0.2-1.4c-0.1-0.1-0.2-0.3-0.4-0.4
										c-0.2-0.1-0.4-0.3-0.7-0.4c-0.3-0.2-0.6-0.3-1-0.5c-0.4-0.2-0.8-0.3-1.3-0.5c0,0-0.1,0-0.1,0c0,0-0.1,0-0.1,0
										C164,29.4,163.9,29.4,163.8,29.4C163.9,29.4,163.9,29.4,163.8,29.4"/>
									<path d="M127.2,51.6c-0.6-0.1-1.2-0.1-1.8-0.2c-0.7,0-1.4-0.1-2.1-0.1c-0.7,0-1.5-0.1-2.4-0.1c-0.8,0-1.7-0.1-2.7-0.1
										c-0.2,0.1-0.4,0.2-0.5,0.4c-0.1,0.2-0.2,0.4-0.2,0.6c0,0.2,0,0.5,0.1,0.8c0.1,0.3,0.2,0.7,0.3,1.1c0.3,0,0.6,0,0.9,0
										c0.3,0,0.7,0,1,0.1c0.3,0,0.7,0,1.1,0.1c0.4,0,0.8,0.1,1.2,0.1c-0.7,2-1.4,3.9-2,5.7c-0.6,1.7-1.2,3.3-1.7,4.7
										c-0.5,1.4-1,2.6-1.4,3.7c-0.4,1.1-0.8,2-1.1,2.7c0,0.1,0,0.2,0,0.3c0.1,0.1,0.2,0.2,0.3,0.2c0.1,0.1,0.3,0.1,0.6,0.2
										c0.2,0.1,0.5,0.1,0.8,0.2c0.1,0,0.1,0,0.2,0c0.1,0,0.1,0,0.2,0s0.1,0,0.1,0c0,0,0.1,0,0.1,0c0.2,0,0.4,0,0.6,0
										c0.2,0,0.3,0,0.4,0c0.1,0,0.2,0,0.3-0.1s0.1-0.1,0.1-0.1c0.6-1.8,1.3-3.4,1.9-5c0.6-1.6,1.2-3.1,1.8-4.5
										c0.6-1.4,1.2-2.8,1.7-4c0.6-1.3,1.1-2.5,1.6-3.6c0.1,0,0.2,0,0.3,0c0.1,0,0.2,0,0.3,0c0.1,0,0.2,0,0.3,0c0.1,0,0.2,0,0.3,0
										c0.3,0,0.6,0.1,0.9,0.1c0.3,0,0.6,0.1,0.9,0.1c0.3,0,0.6,0.1,0.9,0.1c0.3,0,0.6,0.1,1,0.1c0.3,0,0.6-0.1,0.7-0.3
										c0.2-0.1,0.3-0.3,0.3-0.5c0-0.2,0-0.5-0.1-0.8c-0.1-0.3-0.3-0.6-0.6-1c-0.2-0.1-0.4-0.2-0.7-0.3c-0.3-0.1-0.6-0.2-1-0.3
										c-0.4-0.1-0.8-0.2-1.3-0.2C128.4,51.7,127.8,51.7,127.2,51.6"/>
									<path d="M134.7,70.7c-0.4,0-0.6-0.2-0.8-0.4c-0.2-0.2-0.2-0.6-0.2-1c0-0.4,0.1-1,0.3-1.6c0.2-0.6,0.5-1.3,0.9-2.2
										c0.8-1.2,1.5-2.2,2.2-3.2c0.7-1,1.4-1.9,2-2.7c0.6-0.8,1.3-1.6,1.8-2.2c0.6-0.7,1.1-1.2,1.7-1.7c0.1,0,0.2,0,0.2,0
										c0.1,0,0.2,0,0.2,0c0.1,0,0.1,0,0.2,0c0.1,0,0.1,0,0.2,0c0.6,0.1,1,0.2,1.3,0.5c0.3,0.3,0.5,0.7,0.5,1.2
										c0.1,0.5,0,1.1-0.2,1.8c-0.2,0.7-0.5,1.5-1,2.5c-0.7,1.2-1.5,2.3-2.2,3.2c-0.7,1-1.4,1.8-2.1,2.6c-0.7,0.7-1.4,1.4-2.1,1.9
										c-0.7,0.5-1.4,0.9-2,1.2c-0.1,0-0.2,0-0.3,0.1c-0.1,0-0.2,0-0.3,0c-0.1,0-0.2,0-0.2,0C134.9,70.7,134.8,70.7,134.7,70.7
										 M145.8,52.5c-0.1,0-0.2,0-0.3,0c-0.1,0-0.2,0-0.3,0s-0.2,0-0.3,0c-0.1,0-0.2,0-0.3,0c-0.2,0-0.4,0.1-0.5,0.1
										c-0.2,0-0.3,0.1-0.5,0.1c-0.2,0-0.3,0.1-0.5,0.1c-0.2,0-0.3,0.1-0.5,0.1c-0.1-0.1-0.2-0.1-0.3-0.2
										c-0.1-0.1-0.2-0.1-0.2-0.1s-0.2-0.1-0.2-0.1c-0.1,0-0.1,0-0.2,0c0,0-0.1,0-0.1,0c0,0-0.1,0-0.1,0s-0.1,0-0.1,0
										c0,0-0.1,0-0.1,0.1c-1.8,1.4-3.3,2.9-4.7,4.3c-1.3,1.4-2.5,2.8-3.3,4.2c-0.9,1.4-1.6,2.8-2,4.1c-0.5,1.4-0.7,2.7-0.7,4
										c0,0.7,0.1,1.4,0.3,2c0.2,0.6,0.4,1,0.6,1.4c0.3,0.4,0.6,0.7,0.9,0.9c0.4,0.2,0.8,0.4,1.3,0.4c0.1,0,0.2,0,0.3,0
										c0.1,0,0.2,0,0.4,0c0.1,0,0.3,0,0.4,0s0.3,0,0.4-0.1c0.2,0,0.5-0.1,0.7-0.3c0.3-0.1,0.6-0.3,1-0.5c0.4-0.2,0.8-0.4,1.2-0.7
										c0.5-0.3,0.9-0.6,1.5-0.9c1.3-0.9,2.4-1.9,3.4-2.9c1-1,1.9-2.2,2.6-3.3c0.7-1.2,1.4-2.4,1.9-3.8c0.5-1.3,0.9-2.7,1.1-4.2
										c0.1-0.8,0-1.4,0-2c-0.1-0.6-0.2-1.1-0.5-1.5c-0.2-0.4-0.5-0.7-0.9-1C146.8,52.7,146.3,52.6,145.8,52.5"/>
									<path d="M100.6,74.4c-0.1,0-0.3,0-0.4,0c-0.1,0-0.2,0.1-0.3,0.2c-0.1,0.1-0.2,0.2-0.3,0.3c-0.1,0.1-0.2,0.3-0.2,0.4
										c-0.4,1.1-0.7,2.1-1,3.1c-0.3,1-0.7,2-1,2.9c-0.3,0.9-0.7,1.8-1,2.7c-0.3,0.8-0.7,1.6-1,2.4c-0.3,0.8-0.7,1.5-1,2.2
										c-0.3,0.7-0.6,1.4-0.9,2.1c-0.3,0.7-0.5,1.3-0.8,2c-0.3,0.6-0.5,1.3-0.7,1.9c0.1,0.2,0.2,0.3,0.3,0.4
										c0.1,0.1,0.2,0.3,0.4,0.4c0.2,0.1,0.3,0.2,0.5,0.3c0.2,0.1,0.4,0.2,0.6,0.2c0.1,0,0.2,0.1,0.3,0.1c0.1,0,0.2,0,0.2,0.1
										s0.1,0,0.2,0c0.1,0,0.1,0,0.2,0c0.1,0,0.2,0,0.2,0s0.1,0,0.2,0s0.1,0,0.1-0.1c0,0,0.1-0.1,0.1-0.1c0.2-0.6,0.4-1.1,0.6-1.7
										c0.2-0.6,0.4-1.1,0.6-1.7c0.2-0.6,0.4-1.1,0.7-1.6c0.2-0.5,0.4-1.1,0.7-1.6c0.2,0.7,0.4,1.5,0.7,2.1
										c0.3,0.7,0.7,1.3,1.2,1.9c0.5,0.6,1.1,1.2,1.8,1.7c0.7,0.5,1.4,1,2.3,1.5c0.1,0,0.2,0.1,0.2,0.1s0.1,0.1,0.2,0.1
										c0.1,0,0.1,0,0.2,0.1c0.1,0,0.1,0,0.2,0c0.2,0,0.3,0,0.5,0c0.1,0,0.3-0.1,0.4-0.2c0.1-0.1,0.2-0.2,0.3-0.4
										c0.1-0.1,0.1-0.3,0.2-0.5c-0.6-0.7-1.1-1.4-1.6-2.2c-0.4-0.8-0.8-1.6-1.1-2.4c-0.3-0.8-0.5-1.7-0.6-2.6
										c-0.1-0.9-0.2-1.8-0.1-2.8c0.9-0.7,1.8-1.4,2.6-2c0.8-0.7,1.6-1.3,2.4-2c0.8-0.6,1.5-1.3,2.2-1.9c0.7-0.6,1.4-1.2,2-1.8
										c0-0.3-0.1-0.5-0.1-0.7c-0.1-0.2-0.1-0.4-0.2-0.5c-0.1-0.1-0.2-0.2-0.3-0.3c-0.1-0.1-0.2-0.1-0.4-0.1c0,0-0.1,0-0.1,0
										c0,0-0.1,0-0.1,0c0,0-0.1,0-0.1,0c0,0-0.1,0-0.1,0c-0.6,0.6-1.2,1.2-2,1.9c-0.7,0.6-1.5,1.2-2.3,1.9
										c-0.8,0.6-1.7,1.2-2.7,1.9c-0.9,0.6-2,1.2-3,1.9c0.3-0.7,0.7-1.4,1-2.1c0.3-0.7,0.6-1.4,0.9-2.1c0.3-0.7,0.6-1.4,0.9-2.1
										c0.3-0.7,0.6-1.4,0.8-2c0-0.1-0.1-0.2-0.3-0.3c-0.2-0.1-0.4-0.2-0.7-0.3c-0.3-0.1-0.6-0.2-1-0.3c-0.4-0.1-0.9-0.2-1.4-0.3
										C100.7,74.4,100.7,74.4,100.6,74.4C100.7,74.4,100.7,74.4,100.6,74.4C100.7,74.4,100.7,74.4,100.6,74.4
										C100.6,74.4,100.6,74.4,100.6,74.4"/>
									<path d="M118.6,83.3c-0.2,0-0.5,0-0.7,0s-0.4,0-0.7,0c-0.2,0-0.4,0-0.6,0.1s-0.4,0.1-0.6,0.1c-0.5,1.1-1,2.3-1.5,3.3
										c-0.5,1.1-0.9,2.1-1.3,3.1c-0.4,1-0.8,2-1.1,2.9c-0.3,0.9-0.6,1.8-0.9,2.6c0,0.2-0.1,0.5-0.1,0.7c0,0.2,0,0.4,0,0.5
										c0,0.1,0.1,0.3,0.2,0.4c0.1,0.1,0.2,0.2,0.3,0.2c0.1,0,0.3,0.1,0.4,0.1s0.3,0.1,0.4,0.1c0.1,0,0.3,0.1,0.4,0.1
										c0.1,0,0.3,0,0.4,0.1c0.3,0,0.6,0,0.9,0c0.3,0,0.6,0,0.8-0.1c0.3,0,0.6-0.1,0.8-0.2c0.3-0.1,0.6-0.2,0.8-0.3
										c0.1-0.2,0.2-0.3,0.3-0.5c0.1-0.1,0.2-0.3,0.2-0.4c0-0.1,0.1-0.2,0.1-0.3s0-0.2-0.1-0.2c-0.1,0.1-0.3,0.1-0.4,0.2
										c-0.1,0.1-0.2,0.1-0.3,0.1s-0.2,0.1-0.2,0.1c-0.1,0-0.1,0-0.2,0c0,0-0.1,0-0.1,0c0,0,0,0-0.1,0c0,0,0,0,0-0.1s0-0.1,0-0.1
										c0.3-1,0.6-2,1-3c0.4-1,0.7-2,1.1-3c0.4-1,0.8-2,1.3-3c0.5-1,0.9-2,1.4-3c-0.2-0.1-0.4-0.1-0.5-0.1c-0.2,0-0.3-0.1-0.5-0.1
										c-0.2,0-0.3-0.1-0.5-0.1C118.9,83.3,118.8,83.3,118.6,83.3 M121.4,77.3c-0.1,0-0.2,0-0.2,0s-0.2,0-0.2,0s-0.2,0-0.3,0
										s-0.2,0-0.3,0.1c-0.2,0-0.4,0.1-0.6,0.2c-0.2,0.1-0.4,0.2-0.5,0.3c-0.2,0.1-0.3,0.2-0.5,0.3c-0.2,0.1-0.3,0.3-0.5,0.4
										c-0.2,0.1-0.3,0.3-0.4,0.4c-0.1,0.2-0.2,0.3-0.3,0.5c-0.1,0.2-0.2,0.3-0.2,0.5c-0.1,0.2-0.1,0.3-0.1,0.5c0,0.2,0,0.3,0,0.5
										c0,0.1,0,0.3,0.1,0.4c0,0.1,0.1,0.2,0.2,0.3c0.1,0.1,0.2,0.2,0.3,0.3c0.1,0,0.1,0.1,0.2,0.1c0.1,0,0.1,0.1,0.2,0.1
										s0.1,0,0.2,0.1c0.1,0,0.2,0,0.2,0c0.1,0,0.2,0,0.2,0c0.1,0,0.2,0,0.2,0c0.1,0,0.2,0,0.3,0c0.1,0,0.2,0,0.3-0.1
										c0.2,0,0.4-0.1,0.6-0.2c0.2-0.1,0.4-0.2,0.5-0.3c0.2-0.1,0.3-0.2,0.5-0.3c0.2-0.1,0.3-0.3,0.5-0.4c0.2-0.2,0.3-0.3,0.4-0.5
										c0.1-0.2,0.2-0.3,0.3-0.5c0.1-0.2,0.2-0.3,0.2-0.5c0.1-0.2,0.1-0.3,0.1-0.5c0-0.2,0-0.3,0-0.5c0-0.1,0-0.3-0.1-0.4
										c0-0.1-0.1-0.2-0.2-0.3c-0.1-0.1-0.2-0.2-0.3-0.3c-0.1,0-0.1-0.1-0.2-0.1c-0.1,0-0.1-0.1-0.2-0.1c-0.1,0-0.1,0-0.2-0.1
										C121.5,77.3,121.5,77.3,121.4,77.3"/>
									<path d="M129.9,77.5c-0.1,0-0.3,0-0.4,0c-0.1,0-0.2,0.1-0.3,0.2c-0.1,0.1-0.2,0.2-0.3,0.3c-0.1,0.1-0.2,0.3-0.2,0.4
										c-0.6,2-1.1,3.9-1.7,5.7c-0.6,1.8-1.2,3.5-1.8,5.2c-0.6,1.6-1.2,3.2-1.8,4.6c-0.6,1.4-1.3,2.8-1.9,4c0,0.1,0,0.2,0,0.3
										c0.1,0.1,0.2,0.2,0.3,0.3c0.1,0.1,0.3,0.2,0.6,0.2c0.2,0.1,0.5,0.1,0.8,0.2c0.1,0,0.1,0,0.2,0s0.1,0,0.2,0s0.1,0,0.2,0
										c0.1,0,0.1,0,0.2,0c0.1,0,0.2,0,0.3,0c0.1,0,0.2,0,0.3,0c0.1,0,0.2,0,0.3,0c0.1,0,0.2,0,0.2,0c0.7-0.2,1.5-0.3,2.2-0.5
										c0.7-0.1,1.5-0.2,2.2-0.3c0.7-0.1,1.4-0.1,2.2-0.2c0.7,0,1.4-0.1,2.1,0c0.2-0.2,0.3-0.4,0.3-0.5c0.1-0.2,0.1-0.3,0.1-0.5
										c0-0.1-0.1-0.3-0.2-0.4c-0.1-0.1-0.3-0.2-0.5-0.3c-0.2,0-0.3-0.1-0.5-0.1c-0.2,0-0.3-0.1-0.5-0.1c-0.2,0-0.4-0.1-0.6-0.1
										s-0.4,0-0.6-0.1c-0.3,0-0.7-0.1-1.1-0.1c-0.4,0-0.7-0.1-1.1-0.1c-0.4,0-0.8,0-1.2,0c-0.4,0-0.8,0-1.3,0
										c0.5-1,0.9-2,1.3-2.9c0.4-0.9,0.8-1.8,1.1-2.6c0.3-0.8,0.7-1.6,0.9-2.3c0.3-0.7,0.5-1.4,0.8-2c0.3-0.8,0.6-1.5,0.8-2.2
										c0.3-0.7,0.5-1.3,0.8-1.9c0.3-0.6,0.5-1.1,0.8-1.6c0.3-0.5,0.5-1,0.8-1.4c0-0.1,0-0.2-0.2-0.3s-0.4-0.2-0.7-0.3
										c-0.3-0.1-0.7-0.2-1.2-0.3c-0.5-0.1-1.1-0.2-1.7-0.3C130,77.6,130,77.6,129.9,77.5C130,77.5,130,77.5,129.9,77.5
										C129.9,77.5,129.9,77.5,129.9,77.5C129.9,77.5,129.9,77.5,129.9,77.5"/>
									<path d="M146.8,79.3c-0.1,0-0.3,0-0.4,0c-0.1,0-0.2,0.1-0.3,0.2c-0.1,0.1-0.2,0.2-0.3,0.3s-0.2,0.3-0.2,0.4
										c-0.6,2-1.1,3.9-1.7,5.7c-0.6,1.8-1.2,3.5-1.8,5.2c-0.6,1.6-1.2,3.2-1.8,4.6c-0.6,1.4-1.2,2.8-1.9,4c0,0.1,0,0.2,0,0.3
										c0.1,0.1,0.2,0.2,0.3,0.3c0.1,0.1,0.3,0.2,0.6,0.2c0.2,0.1,0.5,0.1,0.8,0.2c0.1,0,0.1,0,0.2,0c0.1,0,0.1,0,0.2,0
										s0.1,0,0.2,0c0.1,0,0.1,0,0.2,0c0.1,0,0.2,0,0.3,0c0.1,0,0.2,0,0.3,0c0.1,0,0.2,0,0.3,0c0.1,0,0.2,0,0.2,0
										c0.7-0.2,1.5-0.3,2.2-0.5s1.5-0.2,2.2-0.3c0.7-0.1,1.4-0.1,2.2-0.2c0.7,0,1.4-0.1,2.2,0c0.2-0.2,0.3-0.4,0.3-0.5
										c0.1-0.2,0.1-0.3,0.1-0.5c0-0.1-0.1-0.3-0.2-0.4c-0.1-0.1-0.3-0.2-0.5-0.3c-0.2,0-0.3-0.1-0.5-0.1c-0.2,0-0.3-0.1-0.5-0.1
										c-0.2,0-0.4-0.1-0.6-0.1s-0.4,0-0.6-0.1c-0.3,0-0.7-0.1-1.1-0.1c-0.4,0-0.7-0.1-1.1-0.1c-0.4,0-0.8,0-1.2,0
										c-0.4,0-0.8,0-1.3,0c0.4-1,0.9-2,1.3-2.9c0.4-0.9,0.8-1.8,1.1-2.6c0.3-0.8,0.7-1.6,0.9-2.3c0.3-0.7,0.5-1.4,0.8-2
										c0.3-0.8,0.6-1.5,0.8-2.2c0.3-0.7,0.5-1.3,0.8-1.9c0.3-0.6,0.5-1.1,0.8-1.6c0.3-0.5,0.5-1,0.7-1.4c0-0.1,0-0.2-0.2-0.3
										c-0.1-0.1-0.4-0.2-0.7-0.3c-0.3-0.1-0.7-0.2-1.2-0.3c-0.5-0.1-1.1-0.2-1.7-0.3C146.9,79.3,146.9,79.3,146.8,79.3
										C146.9,79.3,146.9,79.3,146.8,79.3C146.9,79.3,146.9,79.3,146.8,79.3C146.8,79.3,146.8,79.3,146.8,79.3"/>
								</g>
							</g>
						</g>
					</g>
				</g>
			</g>
		</g>
		<path class="st13" d="M174.4,139.6c18.9,4.6,22.8,8.5,49.7,17.9c11.7,4.1,27.5,9.1,46.7,13.9c0,7.9,0,15.9,0,23.8
			c-22.7,3.2-41.7,1.9-54.6,0c0,0-29.9-4.3-59.6-18.9c-12.3-6-22.9-12.9-22.9-12.9c-8-5.2-10.1-7.4-16.9-11.9
			c-9.5-6.3-16.9-9.8-27.8-14.9c-17.9-8.4-27.1-12.7-40.7-15.9c-20.2-4.8-30.3-7.2-32.8-7c-1.4,0.1-8.3,0.8-11.9-3c-0.8-0.8-1-2-1-2
			l0,0c-0.2-1.1-0.1-3.5,0-4c0.6-2.3,10.7-0.8,19.9-3c5.6-1.3,5.2-2.6,9.9-4c6.5-1.8,13.8-1.2,33.8,7c8.9,3.7,14.9,6.6,19.9,8.9
			c11.5,5.5,27.9,13.3,41.7,17.9C148.5,138.6,148.7,133.3,174.4,139.6z"/>
		<path class="st14" d="M272.8,174.4c-22.2-0.7-44.4-1.3-66.6-2c8-9.8,22.3-30.1,27.8-59.6c7.7-41.8-7.4-74.7-12.9-85.5
			c9.9,7.6,19.9,15.2,29.8,22.9c5.5,6.1,13.2,16,18.9,29.8c6.5,15.7,7.3,28.9,7.9,41.7C278.4,134.2,278,152.5,272.8,174.4z"/>
		<path class="st15" d="M169.4,168.4c21.8,9.6,54.9,19.7,101.3,18.9c0,1,0,2,0,3c-8.4,0.8-20,1.3-33.8,0
			c-20.6-1.9-35.3-6.9-49.7-11.9c-29.7-10.3-53.5-23.4-70.5-32.8c-11.4-6.3-16.3-9.5-27.8-14.9c-0.3-0.1-0.8-0.4-1.5-0.7
			c-19.4-9.1-39.2-15.2-39.2-15.2c-25.7-7.9-44.8-9.1-44.7-9.9c0.1-0.7,12.3-0.3,25.8,2c20.6,3.5,35.5,10.2,41.7,12.9
			C111.1,137.1,144.8,157.5,169.4,168.4z"/>
		<path class="st16" d="M88.9,26.3c0,0-20.8,12.7-33.7,33c-6.1,9.5-10,18.6-10,18.6c-1.2,2.4-1.9,4.2-2.4,5.6
			c-1.5,4.2-2,5.3-2.5,6.4c-2.9,6.4-15.9,10.9-15.9,10.9c-7.9,2.8-13,3.2-12.9,4c0.1,0.9,7.5,1,9.9,1c0,0,4.5,0.1,36.8,3
			c9.6,0.9,23.5,3,40.7,8.9c12-16.4,30.3-37.6,56.6-57.6c22.7-17.3,44.5-28.5,61.6-35.8c-8.1-4.1-19.9-9-34.8-11.9
			c-16-3.1-28.2-1.9-38.9-1.8C133,10.8,111.2,12.7,88.9,26.3z"/>
		<path class="st17" d="M238.5,196.7c-20.5-1.1-35.6-5.2-45.7-7.9c-14.5-4-36.6-10.1-56.1-23.3c-3.5-2.4-12.6-8.8-26.3-16.8
			c-5.5-3.2-10-5.8-12.5-7c-28.6-14.6-44.7-22.8-67.6-25.8c-8.7-1.1-28.2-2.9-28.8-7.9c-0.1-0.8,0.2-2.1,1-3
			c1.9-2.2,5.5-1.4,10.4-1.5c0,0,4.6-0.1,10.4-1.5C34,99.2,40.6,88.7,42.2,85.9c3.6-10.5,15.5-40.5,46.7-59.6
			c22.9-14,44.8-15.2,58.6-15.9c14-0.7,45.1-1.8,76.5,17.9c8.2,5.1,28.2,17.9,40.7,42.7c12.4,24.4,13.5,52.7,10.4,71
			c-1.1,6.3-4.7,24-5,48.7c0,2.1,0,3.8,0,5C262.1,196.7,251.3,197.4,238.5,196.7z"/>
		<g>
			<g>
				<g>
					<g>
						<g>
							<path class="st18" d="M200,176.8c0.3,0.1,0.7,0.1,1.1,0.2c2,0.3,3.9,0.2,5.4-0.1c1.7-9.6,3.4-19.6,4.8-29.8
								c1.1-7.8,2.1-15.5,2.9-23c0-1.2-0.1-3,0-5.1c0-6.1,0.4-9.8,0.5-13.2c0.1-3.4,0.2-8.3-0.4-14.4"/>
						</g>
						<g>
							<path class="st18" d="M200,176.8c-0.3,0-0.7-0.1-1.1-0.2c-2-0.4-3.7-1.1-5.1-1.8c1.5-9.7,3.2-19.6,5.2-29.8
								c1.5-7.7,3.1-15.3,4.7-22.7c0.4-1.1,1-2.8,1.7-4.8c2-5.8,2.8-9.4,3.8-12.6c1-3.3,2.5-7.9,5.1-13.4"/>
						</g>
					</g>
					<path class="st18" d="M207.6,112.2c0.3,0.3,1.3,1.3,3,1.5c0.4,0.1,1.8,0.3,3.3-0.5"/>
					<path class="st18" d="M203.3,125.1c1,0.6,2.7,1.5,5.1,1.9c1.1,0.2,3.1,0.4,5.4-0.1"/>
					<path class="st18" d="M196.1,161.5c1.3,0.7,3.4,1.6,6.1,2.1c1.5,0.3,3.8,0.5,6.5,0"/>
				</g>
				<g class="st19">
					<g>
						<g>
							<g>
								<path class="st20" d="M205.6,117.5c-0.6,2-1.2,3.7-1.6,4.8c-1.6,7.4-3.1,15-4.5,22.7c-1.9,10.2-3.6,20.1-5.1,29.8
									c1.1,0.7,2.5,1.3,4.2,1.7c0.3,0.1,0.6,0.1,0.9,0.1l14.3-85.3c-2.2,5.6-3.7,10.2-4.6,13.5
									C208.2,108.1,207.4,111.7,205.6,117.5z"/>
							</g>
						</g>
					</g>
				</g>
				
					<rect x="206.1" y="94.8" transform="matrix(0.9863 0.1652 -0.1652 0.9863 25.3968 -32.2655)" class="st21" width="1.2" height="83.5"/>
				<g>
					<g>
						<g>
							<path class="st22" d="M200,176.8c0.3,0.1,0.7,0.1,1.1,0.2c2,0.3,3.9,0.2,5.4-0.1c1.7-9.6,3.4-19.6,4.8-29.8
								c1.1-7.8,2.1-15.5,2.9-23c0-1.2-0.1-3,0-5.1c0-6.1,0.4-9.8,0.5-13.2c0.1-3.4,0.2-8.3-0.4-14.4"/>
						</g>
						<g>
							<path class="st22" d="M200,176.8c-0.3,0-0.7-0.1-1.1-0.2c-2-0.4-3.7-1.1-5.1-1.8c1.5-9.7,3.2-19.6,5.2-29.8
								c1.5-7.7,3.1-15.3,4.7-22.7c0.4-1.1,1-2.8,1.7-4.8c2-5.8,2.8-9.4,3.8-12.6c1-3.3,2.5-7.9,5.1-13.4"/>
						</g>
					</g>
					<path class="st22" d="M207.6,112.2c0.3,0.3,1.3,1.3,3,1.5c0.4,0.1,1.8,0.3,3.3-0.5"/>
					<path class="st22" d="M203.3,125.1c1,0.6,2.7,1.5,5.1,1.9c1.1,0.2,3.1,0.4,5.4-0.1"/>
					<path class="st22" d="M196.1,161.5c1.3,0.7,3.4,1.6,6.1,2.1c1.5,0.3,3.8,0.5,6.5,0"/>
				</g>
			</g>
			<g>
				<g>
					<g>
						<g>
							<path class="st18" d="M238.5,185.3c0.3,0.1,0.7,0.2,1,0.2c2,0.4,3.8,0.4,5.3,0.3c2.2-9.2,4.4-18.7,6.4-28.5
								c1.5-7.5,2.9-14.8,4.2-22c0-1.2,0.1-2.9,0.2-4.9c0.4-5.9,0.9-9.5,1.2-12.7c0.3-3.3,0.6-8,0.4-13.9"/>
						</g>
						<g>
							<path class="st18" d="M238.5,185.3c-0.3-0.1-0.7-0.1-1-0.2c-2-0.5-3.6-1.3-4.9-2.1c2-9.3,4.2-18.7,6.7-28.5
								c1.9-7.4,3.9-14.6,5.9-21.6c0.5-1.1,1.2-2.6,1.9-4.6c2.3-5.5,3.3-8.9,4.4-12c1.1-3.1,2.9-7.5,5.7-12.7"/>
						</g>
					</g>
					<path class="st18" d="M249.5,123.4c0.3,0.3,1.2,1.3,2.8,1.7c0.4,0.1,1.8,0.4,3.3-0.3"/>
					<path class="st18" d="M244.5,135.5c0.9,0.6,2.6,1.6,4.9,2.1c1.1,0.3,3,0.6,5.3,0.2"/>
					<path class="st18" d="M235.4,170.3c1.3,0.8,3.3,1.8,5.9,2.4c1.5,0.3,3.7,0.7,6.4,0.4"/>
				</g>
				<g class="st19">
					<g>
						<g>
							<g>
								<path class="st20" d="M247.2,128.4c-0.7,1.9-1.4,3.5-1.8,4.6c-1.9,7-3.9,14.3-5.7,21.7c-2.4,9.7-4.7,19.2-6.7,28.5
									c1.1,0.7,2.4,1.4,4,1.9c0.3,0.1,0.6,0.1,0.8,0.2l18.8-81.6c-2.5,5.2-4.2,9.6-5.2,12.8C250.3,119.4,249.3,122.8,247.2,128.4z
									"/>
							</g>
						</g>
					</g>
				</g>
				
					<rect x="246.7" y="106.4" transform="matrix(0.9746 0.224 -0.224 0.9746 39.1902 -51.6632)" class="st21" width="1.2" height="80.8"/>
				<g>
					<g>
						<g>
							<path class="st22" d="M238.5,185.3c0.3,0.1,0.7,0.2,1,0.2c2,0.4,3.8,0.4,5.3,0.3c2.2-9.2,4.4-18.7,6.4-28.5
								c1.5-7.5,2.9-14.8,4.2-22c0-1.2,0.1-2.9,0.2-4.9c0.4-5.9,0.9-9.5,1.2-12.7c0.3-3.3,0.6-8,0.4-13.9"/>
						</g>
						<g>
							<path class="st22" d="M238.5,185.3c-0.3-0.1-0.7-0.1-1-0.2c-2-0.5-3.6-1.3-4.9-2.1c2-9.3,4.2-18.7,6.7-28.5
								c1.9-7.4,3.9-14.6,5.9-21.6c0.5-1.1,1.2-2.6,1.9-4.6c2.3-5.5,3.3-8.9,4.4-12c1.1-3.1,2.9-7.5,5.7-12.7"/>
						</g>
					</g>
					<path class="st22" d="M249.5,123.4c0.3,0.3,1.2,1.3,2.8,1.7c0.4,0.1,1.8,0.4,3.3-0.3"/>
					<path class="st22" d="M244.5,135.5c0.9,0.6,2.6,1.6,4.9,2.1c1.1,0.3,3,0.6,5.3,0.2"/>
					<path class="st22" d="M235.4,170.3c1.3,0.8,3.3,1.8,5.9,2.4c1.5,0.3,3.7,0.7,6.4,0.4"/>
				</g>
			</g>
			<g>
				<g>
					<g>
						<g>
							<path class="st18" d="M212.6,181c0.3,0.1,0.7,0.1,1.1,0.2c2,0.3,3.9,0.2,5.4-0.1c1.7-9.6,3.4-19.6,4.8-29.8
								c1.1-7.8,2.1-15.5,2.9-23c0-1.2-0.1-3,0-5.1c0-6.1,0.4-9.8,0.5-13.2c0.1-3.4,0.2-8.3-0.4-14.4"/>
						</g>
						<g>
							<path class="st18" d="M212.6,181c-0.3,0-0.7-0.1-1.1-0.2c-2-0.4-3.7-1.1-5.1-1.8c1.5-9.7,3.2-19.6,5.2-29.8
								c1.5-7.7,3.1-15.3,4.7-22.7c0.4-1.1,1-2.8,1.7-4.8c2-5.8,2.8-9.4,3.8-12.6c1-3.3,2.5-7.9,5.1-13.4"/>
						</g>
					</g>
					<path class="st18" d="M220.2,116.5c0.3,0.3,1.3,1.3,3,1.5c0.4,0.1,1.8,0.3,3.3-0.5"/>
					<path class="st18" d="M215.8,129.3c1,0.6,2.7,1.5,5.1,1.9c1.1,0.2,3.1,0.4,5.4-0.1"/>
					<path class="st18" d="M208.7,165.7c1.3,0.7,3.4,1.6,6.1,2.1c1.5,0.3,3.8,0.5,6.5,0"/>
				</g>
				<g class="st19">
					<g>
						<g>
							<g>
								<path class="st20" d="M218.2,121.8c-0.6,2-1.2,3.7-1.6,4.8c-1.6,7.4-3.1,15-4.5,22.7c-1.9,10.2-3.6,20.1-5.1,29.8
									c1.1,0.7,2.5,1.3,4.2,1.7c0.3,0.1,0.6,0.1,0.9,0.1l14.3-85.3c-2.2,5.6-3.7,10.2-4.6,13.5C220.8,112.3,220,115.9,218.2,121.8
									z"/>
							</g>
						</g>
					</g>
				</g>
				
					<rect x="218.7" y="99.1" transform="matrix(0.9863 0.1652 -0.1652 0.9863 26.2678 -34.2824)" class="st21" width="1.2" height="83.5"/>
				<g>
					<g>
						<g>
							<path class="st22" d="M212.6,181c0.3,0.1,0.7,0.1,1.1,0.2c2,0.3,3.9,0.2,5.4-0.1c1.7-9.6,3.4-19.6,4.8-29.8
								c1.1-7.8,2.1-15.5,2.9-23c0-1.2-0.1-3,0-5.1c0-6.1,0.4-9.8,0.5-13.2c0.1-3.4,0.2-8.3-0.4-14.4"/>
						</g>
						<g>
							<path class="st22" d="M212.6,181c-0.3,0-0.7-0.1-1.1-0.2c-2-0.4-3.7-1.1-5.1-1.8c1.5-9.7,3.2-19.6,5.2-29.8
								c1.5-7.7,3.1-15.3,4.7-22.7c0.4-1.1,1-2.8,1.7-4.8c2-5.8,2.8-9.4,3.8-12.6c1-3.3,2.5-7.9,5.1-13.4"/>
						</g>
					</g>
					<path class="st22" d="M220.2,116.5c0.3,0.3,1.3,1.3,3,1.5c0.4,0.1,1.8,0.3,3.3-0.5"/>
					<path class="st22" d="M215.8,129.3c1,0.6,2.7,1.5,5.1,1.9c1.1,0.2,3.1,0.4,5.4-0.1"/>
					<path class="st22" d="M208.7,165.7c1.3,0.7,3.4,1.6,6.1,2.1c1.5,0.3,3.8,0.5,6.5,0"/>
				</g>
			</g>
			<g>
				<g>
					<g>
						<g>
							<path class="st18" d="M225.8,183c0.3,0.1,0.7,0.2,1,0.2c2,0.4,3.8,0.4,5.4,0.3c2.3-9.5,4.5-19.3,6.6-29.5
								c1.6-7.7,3-15.3,4.3-22.8c0-1.2,0.1-3,0.3-5.1c0.4-6.1,1-9.8,1.3-13.1c0.4-3.4,0.7-8.3,0.4-14.4"/>
						</g>
						<g>
							<path class="st18" d="M225.8,183c-0.3-0.1-0.7-0.1-1-0.2c-2-0.5-3.6-1.3-5-2.1c2.1-9.6,4.4-19.4,6.9-29.4
								c2-7.6,4-15.1,6.1-22.4c0.5-1.1,1.2-2.7,2-4.7c2.3-5.7,3.4-9.2,4.6-12.4c1.2-3.2,3-7.7,5.9-13.1"/>
						</g>
					</g>
					<path class="st18" d="M237.2,119.1c0.3,0.3,1.2,1.3,2.9,1.7c0.4,0.1,1.8,0.4,3.3-0.3"/>
					<path class="st18" d="M232.1,131.7c0.9,0.7,2.6,1.7,5,2.2c1.1,0.3,3.1,0.6,5.4,0.2"/>
					<path class="st18" d="M222.8,167.6c1.3,0.8,3.3,1.8,6,2.4c1.5,0.3,3.7,0.7,6.5,0.4"/>
				</g>
				<g class="st19">
					<g>
						<g>
							<g>
								<path class="st20" d="M234.9,124.3c-0.7,2-1.4,3.6-1.8,4.7c-2,7.3-4,14.7-5.9,22.4c-2.5,10-4.8,19.8-6.9,29.4
									c1.1,0.8,2.4,1.5,4,1.9c0.3,0.1,0.6,0.1,0.9,0.2l19.4-84.3c-2.6,5.4-4.3,10-5.4,13.2C238.1,115,237.1,118.5,234.9,124.3z"/>
							</g>
						</g>
					</g>
				</g>
				
					<rect x="234.3" y="101.6" transform="matrix(0.9746 0.224 -0.224 0.9746 38.0843 -48.9828)" class="st21" width="1.2" height="83.5"/>
				<g>
					<g>
						<g>
							<path class="st22" d="M225.8,183c0.3,0.1,0.7,0.2,1,0.2c2,0.4,3.8,0.4,5.4,0.3c2.3-9.5,4.5-19.3,6.6-29.5
								c1.6-7.7,3-15.3,4.3-22.8c0-1.2,0.1-3,0.3-5.1c0.4-6.1,1-9.8,1.3-13.1c0.4-3.4,0.7-8.3,0.4-14.4"/>
						</g>
						<g>
							<path class="st22" d="M225.8,183c-0.3-0.1-0.7-0.1-1-0.2c-2-0.5-3.6-1.3-5-2.1c2.1-9.6,4.4-19.4,6.9-29.4
								c2-7.6,4-15.1,6.1-22.4c0.5-1.1,1.2-2.7,2-4.7c2.3-5.7,3.4-9.2,4.6-12.4c1.2-3.2,3-7.7,5.9-13.1"/>
						</g>
					</g>
					<path class="st22" d="M237.2,119.1c0.3,0.3,1.2,1.3,2.9,1.7c0.4,0.1,1.8,0.4,3.3-0.3"/>
					<path class="st22" d="M232.1,131.7c0.9,0.7,2.6,1.7,5,2.2c1.1,0.3,3.1,0.6,5.4,0.2"/>
					<path class="st22" d="M222.8,167.6c1.3,0.8,3.3,1.8,6,2.4c1.5,0.3,3.7,0.7,6.5,0.4"/>
				</g>
			</g>
			<g>
				<g>
					<g>
						<g>
							<path class="st18" d="M264.5,186.6c0.3,0.1,0.6,0.1,0.8,0.2c1.6,0.3,3.2,0.3,4.4,0.2c2-8.1,4-16.6,5.8-25.2
								c1.4-6.6,2.7-13.1,3.8-19.5c0.1-1,0.1-2.5,0.3-4.4c0.4-5.2,0.9-8.4,1.2-11.2c0.3-2.9,0.7-7.1,0.6-12.3"/>
						</g>
						<g>
							<path class="st18" d="M264.5,186.6c-0.3-0.1-0.6-0.1-0.8-0.2c-1.6-0.4-3-1.1-4.1-1.8c1.8-8.2,3.8-16.6,6.1-25.2
								c1.7-6.5,3.5-12.9,5.3-19.2c0.4-0.9,1-2.3,1.7-4c2-4.9,2.9-7.9,3.9-10.6c1-2.8,2.6-6.6,5-11.2"/>
						</g>
					</g>
					<path class="st18" d="M274.7,131.8c0.2,0.3,1,1.1,2.3,1.5c0.4,0.1,1.5,0.3,2.8-0.3"/>
					<path class="st18" d="M270.3,142.5c0.8,0.6,2.1,1.4,4,1.9c0.9,0.2,2.5,0.5,4.4,0.1"/>
					<path class="st18" d="M262.2,173.3c1,0.7,2.7,1.5,4.9,2.1c1.2,0.3,3.1,0.6,5.3,0.3"/>
				</g>
				<g class="st19">
					<g>
						<g>
							<g>
								<path class="st20" d="M272.7,136.2c-0.6,1.7-1.2,3.1-1.6,4.1c-1.7,6.2-3.5,12.6-5.1,19.2c-2.2,8.6-4.2,17-6,25.2
									c0.9,0.6,2,1.3,3.3,1.6c0.2,0.1,0.5,0.1,0.7,0.2l17-72.3c-2.2,4.7-3.6,8.6-4.6,11.3C275.5,128.3,274.6,131.3,272.7,136.2z"
									/>
							</g>
						</g>
					</g>
				</g>
				
					<rect x="272" y="116.7" transform="matrix(0.9734 0.2291 -0.2291 0.9734 42.1973 -58.3687)" class="st21" width="1" height="71.6"/>
				<g>
					<g>
						<g>
							<path class="st22" d="M264.5,186.6c0.3,0.1,0.6,0.1,0.8,0.2c1.6,0.3,3.2,0.3,4.4,0.2c2-8.1,4-16.6,5.8-25.2
								c1.4-6.6,2.7-13.1,3.8-19.5c0.1-1,0.1-2.5,0.3-4.4c0.4-5.2,0.9-8.4,1.2-11.2c0.3-2.9,0.7-7.1,0.6-12.3"/>
						</g>
						<g>
							<path class="st22" d="M264.5,186.6c-0.3-0.1-0.6-0.1-0.8-0.2c-1.6-0.4-3-1.1-4.1-1.8c1.8-8.2,3.8-16.6,6.1-25.2
								c1.7-6.5,3.5-12.9,5.3-19.2c0.4-0.9,1-2.3,1.7-4c2-4.9,2.9-7.9,3.9-10.6c1-2.8,2.6-6.6,5-11.2"/>
						</g>
					</g>
					<path class="st22" d="M274.7,131.8c0.2,0.3,1,1.1,2.3,1.5c0.4,0.1,1.5,0.3,2.8-0.3"/>
					<path class="st22" d="M270.3,142.5c0.8,0.6,2.1,1.4,4,1.9c0.9,0.2,2.5,0.5,4.4,0.1"/>
					<path class="st22" d="M262.2,173.3c1,0.7,2.7,1.5,4.9,2.1c1.2,0.3,3.1,0.6,5.3,0.3"/>
				</g>
			</g>
			<g>
				<g>
					<g>
						<g>
							<path class="st18" d="M258,187.3c0.3,0.1,0.6,0.1,0.9,0.2c1.7,0.3,3.3,0.3,4.7,0.1c1.9-8.5,3.8-17.4,5.5-26.5
								c1.3-6.9,2.5-13.7,3.6-20.4c0-1.1,0.1-2.7,0.2-4.6c0.3-5.5,0.8-8.8,1-11.8c0.3-3.1,0.5-7.4,0.3-12.8"/>
						</g>
						<g>
							<path class="st18" d="M258,187.3c-0.3-0.1-0.6-0.1-0.9-0.2c-1.7-0.4-3.1-1.1-4.3-1.8c1.7-8.6,3.7-17.4,5.8-26.4
								c1.6-6.9,3.3-13.6,5.1-20.1c0.4-1,1-2.5,1.7-4.2c2-5.1,2.9-8.3,3.9-11.2c1-2.9,2.6-7,5-11.8"/>
						</g>
					</g>
					<path class="st18" d="M267.5,129.9c0.3,0.3,1.1,1.2,2.5,1.5c0.4,0.1,1.6,0.3,2.9-0.3"/>
					<path class="st18" d="M263.2,141.2c0.8,0.6,2.3,1.4,4.3,1.9c1,0.2,2.7,0.4,4.7,0.1"/>
					<path class="st18" d="M255.3,173.5c1.1,0.7,2.9,1.6,5.2,2.1c1.3,0.3,3.2,0.5,5.6,0.3"/>
				</g>
				<g class="st19">
					<g>
						<g>
							<g>
								<path class="st20" d="M265.5,134.6c-0.6,1.8-1.2,3.3-1.6,4.3c-1.7,6.5-3.3,13.3-5,20.1c-2.1,9-4,17.8-5.8,26.4
									c0.9,0.7,2.1,1.3,3.5,1.6c0.2,0.1,0.5,0.1,0.7,0.2l16.2-75.7c-2.2,4.9-3.6,9-4.6,11.9C268.2,126.2,267.3,129.4,265.5,134.6z
									"/>
							</g>
						</g>
					</g>
				</g>
				
					<rect x="265.1" y="114.2" transform="matrix(0.9778 0.2093 -0.2093 0.9778 37.6193 -52.2409)" class="st21" width="1" height="74.8"/>
				<g>
					<g>
						<g>
							<path class="st22" d="M258,187.3c0.3,0.1,0.6,0.1,0.9,0.2c1.7,0.3,3.3,0.3,4.7,0.1c1.9-8.5,3.8-17.4,5.5-26.5
								c1.3-6.9,2.5-13.7,3.6-20.4c0-1.1,0.1-2.7,0.2-4.6c0.3-5.5,0.8-8.8,1-11.8c0.3-3.1,0.5-7.4,0.3-12.8"/>
						</g>
						<g>
							<path class="st22" d="M258,187.3c-0.3-0.1-0.6-0.1-0.9-0.2c-1.7-0.4-3.1-1.1-4.3-1.8c1.7-8.6,3.7-17.4,5.8-26.4
								c1.6-6.9,3.3-13.6,5.1-20.1c0.4-1,1-2.5,1.7-4.2c2-5.1,2.9-8.3,3.9-11.2c1-2.9,2.6-7,5-11.8"/>
						</g>
					</g>
					<path class="st22" d="M267.5,129.9c0.3,0.3,1.1,1.2,2.5,1.5c0.4,0.1,1.6,0.3,2.9-0.3"/>
					<path class="st22" d="M263.2,141.2c0.8,0.6,2.3,1.4,4.3,1.9c1,0.2,2.7,0.4,4.7,0.1"/>
					<path class="st22" d="M255.3,173.5c1.1,0.7,2.9,1.6,5.2,2.1c1.3,0.3,3.2,0.5,5.6,0.3"/>
				</g>
			</g>
			<g>
				<g>
					<g>
						<g>
							<path class="st18" d="M251.1,187.6c0.3,0.1,0.6,0.1,0.9,0.2c1.8,0.3,3.4,0.3,4.8,0.1c2-8.7,3.8-17.6,5.6-26.9
								c1.3-7,2.5-14,3.6-20.7c0-1.1,0.1-2.7,0.2-4.6c0.3-5.6,0.8-8.9,1.1-11.9c0.3-3.1,0.5-7.5,0.3-13"/>
						</g>
						<g>
							<path class="st18" d="M251.1,187.6c-0.3-0.1-0.6-0.1-0.9-0.2c-1.8-0.4-3.2-1.1-4.4-1.8c1.8-8.7,3.7-17.7,5.9-26.8
								c1.7-7,3.4-13.8,5.2-20.4c0.4-1,1-2.5,1.7-4.3c2-5.2,2.9-8.4,3.9-11.3c1-3,2.6-7.1,5.1-12"/>
						</g>
					</g>
					<path class="st18" d="M260.7,129.3c0.3,0.3,1.1,1.2,2.6,1.5c0.4,0.1,1.6,0.3,3-0.3"/>
					<path class="st18" d="M256.3,140.8c0.8,0.6,2.3,1.5,4.4,1.9c1,0.2,2.7,0.5,4.8,0.1"/>
					<path class="st18" d="M248.3,173.6c1.1,0.7,3,1.6,5.3,2.1c1.3,0.3,3.3,0.6,5.7,0.3"/>
				</g>
				<g class="st19">
					<g>
						<g>
							<g>
								<path class="st20" d="M258.7,134.1c-0.6,1.8-1.2,3.3-1.6,4.3c-1.7,6.6-3.4,13.5-5,20.4c-2.1,9.2-4.1,18.1-5.9,26.8
									c1,0.7,2.2,1.3,3.6,1.7c0.3,0.1,0.5,0.1,0.8,0.2l16.5-76.9c-2.2,5-3.7,9.1-4.6,12.1C261.5,125.6,260.6,128.8,258.7,134.1z"
									/>
							</g>
						</g>
					</g>
				</g>
				
					<rect x="258.3" y="113.4" transform="matrix(0.9778 0.2094 -0.2094 0.9778 37.4421 -50.8494)" class="st21" width="1" height="75.9"/>
				<g>
					<g>
						<g>
							<path class="st22" d="M251.1,187.6c0.3,0.1,0.6,0.1,0.9,0.2c1.8,0.3,3.4,0.3,4.8,0.1c2-8.7,3.8-17.6,5.6-26.9
								c1.3-7,2.5-14,3.6-20.7c0-1.1,0.1-2.7,0.2-4.6c0.3-5.6,0.8-8.9,1.1-11.9c0.3-3.1,0.5-7.5,0.3-13"/>
						</g>
						<g>
							<path class="st22" d="M251.1,187.6c-0.3-0.1-0.6-0.1-0.9-0.2c-1.8-0.4-3.2-1.1-4.4-1.8c1.8-8.7,3.7-17.7,5.9-26.8
								c1.7-7,3.4-13.8,5.2-20.4c0.4-1,1-2.5,1.7-4.3c2-5.2,2.9-8.4,3.9-11.3c1-3,2.6-7.1,5.1-12"/>
						</g>
					</g>
					<path class="st22" d="M260.7,129.3c0.3,0.3,1.1,1.2,2.6,1.5c0.4,0.1,1.6,0.3,3-0.3"/>
					<path class="st22" d="M256.3,140.8c0.8,0.6,2.3,1.5,4.4,1.9c1,0.2,2.7,0.5,4.8,0.1"/>
					<path class="st22" d="M248.3,173.6c1.1,0.7,3,1.6,5.3,2.1c1.3,0.3,3.3,0.6,5.7,0.3"/>
				</g>
			</g>
		</g>
		<path class="st23" d="M277.7,175.4c-83-18.9-113.9-27.5-126.2-31.8c-5.8-2-15.6-5.9-31.8-10.9c-6.3-2-11-3.2-17.9-6
			c-10.9-4.3-18.4-8.6-20.9-9.9c-9-5-24.5-11.7-52.7-18.9c3.6-3.6,7.3-7.3,10.9-10.9c9.5,2.8,24.2,7.5,41.7,14.9
			c18.8,7.9,21.1,10.5,35.8,15.9c16,5.9,19.8,5.2,49.7,12.9c21.1,5.4,31.7,8.2,45.7,12.9c20.6,7,33.9,13.2,54.6,12.9
			c5.5-0.1,10-0.6,12.9-1C279.1,162.1,278.4,168.7,277.7,175.4z"/>
		<path class="st24" d="M269.3,188.1c-9,0.1-19.8-0.4-31.9-2.1c-19-2.7-34.3-7.5-45.1-11.7"/>
		<path class="st25" d="M22.9,0"/>
		<g>
			<g>
				<g class="st11">
					<defs>
						<polygon id="SVGID_3_" class="st11" points="184.3,48.8 200.1,22.7 229.7,43.6 214.4,70 						"/>
					</defs>
					<clipPath id="SVGID_4_">
						<use xlink:href="#SVGID_3_"  style="overflow:visible;"/>
					</clipPath>
					<g class="st26">
						<g>
							<g>
								<g>
									<path class="st27" d="M203.8,49.1L195,51c0.3,0.5,0.6,1,0.9,1.5c0.3,0.5,0.7,0.9,1,1.4c0.4,0.5,0.8,0.9,1.2,1.3
										s0.9,0.8,1.3,1.2L203.8,49.1 M206.2,50.8l-4.3,7.3c0.5,0.3,1,0.6,1.6,0.8c0.5,0.2,1.1,0.5,1.6,0.6c0.5,0.2,1.1,0.3,1.6,0.5
										c0.5,0.1,1.1,0.2,1.6,0.3L206.2,50.8 M214.8,36.2l-6.7,11.3l2.7,12.8c0.9-0.1,1.8-0.2,2.7-0.5c0.8-0.3,1.7-0.6,2.4-1.1
										c0.7-0.4,1.4-1,2.1-1.6c0.6-0.6,1.2-1.3,1.6-2.1c0.8-1.4,1.3-3,1.5-4.7c0.2-1.6,0-3.4-0.4-5c-0.4-1.7-1.2-3.3-2.2-4.9
										C217.6,38.8,216.3,37.4,214.8,36.2 M212.4,34.5c-1.7-1-3.4-1.6-5.1-2c-1.7-0.4-3.4-0.4-5-0.1c-1.6,0.3-3.1,0.8-4.4,1.7
										c-1.3,0.8-2.4,2-3.3,3.4c-0.5,0.8-0.8,1.6-1.1,2.5c-0.3,0.9-0.4,1.8-0.5,2.7c-0.1,0.9,0,1.9,0.1,2.8c0.1,1,0.4,1.9,0.7,2.8
										l11.9-2.6L212.4,34.5"/>
									<path d="M193,36.3c1-1.7,2.4-3,4-4c1.6-1,3.4-1.6,5.4-1.8c1.9-0.2,4,0,6,0.5c2,0.6,4.1,1.5,6,2.9c1.9,1.4,3.6,3,4.9,4.8
										c1.3,1.8,2.3,3.8,2.9,5.8c0.6,2,0.9,4.1,0.7,6.1c-0.2,2-0.7,3.9-1.7,5.6c-1,1.7-2.3,3.1-3.9,4.1c-1.6,1-3.4,1.6-5.4,1.9
										c-1.9,0.2-4,0.1-6.1-0.5c-2.1-0.6-4.1-1.5-6.1-2.9c-2-1.4-3.6-3-4.9-4.9c-1.3-1.8-2.3-3.8-2.9-5.9c-0.6-2-0.8-4.1-0.7-6.1
										C191.4,39.9,192,38,193,36.3 M214.9,33.2c-2-1.4-4.2-2.5-6.4-3c-2.2-0.6-4.3-0.8-6.4-0.6c-2.1,0.2-4,0.9-5.7,1.9
										c-1.7,1-3.1,2.4-4.2,4.2c-1.1,1.8-1.7,3.8-1.9,5.9c-0.2,2.1,0.1,4.3,0.7,6.5c0.6,2.2,1.7,4.3,3.1,6.2
										c1.4,1.9,3.2,3.7,5.2,5.2c2.1,1.5,4.3,2.5,6.5,3.1c2.2,0.6,4.4,0.7,6.4,0.5c2.1-0.3,4-0.9,5.7-2c1.7-1.1,3.1-2.5,4.2-4.3
										c1.1-1.8,1.6-3.8,1.8-5.9c0.2-2.1-0.1-4.3-0.8-6.4c-0.7-2.1-1.7-4.2-3.1-6.1C218.7,36.3,216.9,34.6,214.9,33.2"/>
									<path class="st28" d="M212.4,34.5l0.2-0.4l2.4,1.7l-0.2,0.4c1.5,1.2,2.8,2.7,3.7,4.2c1,1.6,1.7,3.2,2.2,4.9
										c0.4,1.7,0.6,3.4,0.4,5c-0.2,1.6-0.7,3.2-1.5,4.7c-0.5,0.8-1,1.5-1.6,2.1c-0.6,0.6-1.3,1.2-2.1,1.6
										c-0.8,0.4-1.6,0.8-2.4,1.1c-0.8,0.3-1.7,0.4-2.7,0.5l0,0.2l-2.7,0.1l-0.1-0.3c-0.5-0.1-1.1-0.2-1.6-0.3
										c-0.5-0.1-1.1-0.3-1.6-0.5c-0.5-0.2-1.1-0.4-1.6-0.6c-0.5-0.2-1-0.5-1.6-0.8l-0.2,0.4l-2.4-1.7l0.2-0.4
										c-0.5-0.4-0.9-0.8-1.3-1.2s-0.8-0.9-1.2-1.3c-0.4-0.5-0.7-0.9-1-1.4c-0.3-0.5-0.6-1-0.9-1.5l-0.3,0.1l-1.1-2.7l0.2,0
										c-0.3-0.9-0.5-1.9-0.7-2.8c-0.1-1-0.2-1.9-0.1-2.8c0.1-0.9,0.2-1.8,0.5-2.7c0.3-0.9,0.6-1.7,1.1-2.5c0.9-1.4,2-2.6,3.3-3.4
										c1.3-0.8,2.8-1.4,4.4-1.7c1.6-0.3,3.3-0.2,5,0.1C209,32.8,210.8,33.5,212.4,34.5 M214.5,33.9c-1.9-1.4-4-2.3-6-2.9
										c-2.1-0.6-4.1-0.7-6-0.5c-1.9,0.2-3.8,0.8-5.4,1.8c-1.6,1-3,2.3-4,4c-1,1.7-1.6,3.6-1.8,5.6c-0.2,2,0.1,4.1,0.7,6.1
										c0.6,2,1.6,4,2.9,5.9c1.3,1.8,3,3.5,4.9,4.9c2,1.4,4,2.3,6.1,2.9c2.1,0.6,4.1,0.7,6.1,0.5c1.9-0.2,3.8-0.9,5.4-1.9
										c1.6-1,2.9-2.4,3.9-4.1c1-1.7,1.6-3.6,1.7-5.6c0.2-2-0.1-4-0.7-6.1c-0.6-2-1.6-4-2.9-5.8C218,36.9,216.4,35.2,214.5,33.9"
										/>
									<path class="st28" d="M205.7,48.6l-2,0.4l-4.3,7.3l-0.2,0.4l2.4,1.7l0.2-0.4l4.3-7.3L205.7,48.6 M215.1,35.8l-2.4-1.7
										l-0.2,0.4l-6.7,11.3l1.1-0.2l0.3,0.8l0.8,0l0.3,1.2l6.7-11.3L215.1,35.8"/>
									<polyline class="st28" points="206.9,45.5 205.7,45.7 193.9,48.3 193.7,48.4 194.7,51 195,51 203.8,49.1 205.7,48.6 
										205.2,46.3 207.1,46.3 206.9,45.5 									"/>
									<polyline class="st28" points="207.9,46.2 207.1,46.3 205.2,46.3 205.7,48.6 206.2,50.8 208.2,60.2 208.3,60.6 211,60.5 
										210.9,60.3 208.2,47.5 207.9,46.2 									"/>
								</g>
							</g>
						</g>
					</g>
				</g>
			</g>
		</g>
	</g>
</g>
</svg>
