<?xml version="1.0" encoding="utf-8"?>
<!-- Generator: Adobe Illustrator 21.0.0, SVG Export Plug-In . SVG Version: 6.00 Build 0)  -->
<svg version="1.1" id="Layer_1" xmlns="http://www.w3.org/2000/svg" xmlns:xlink="http://www.w3.org/1999/xlink" x="0px" y="0px"
	 viewBox="0 0 203 125.9" style="enable-background:new 0 0 203 125.9;" xml:space="preserve">
<style type="text/css">
	.st0{fill:none;stroke:#000000;stroke-width:3;stroke-miterlimit:10;}
	.st1{fill:#462B20;}
	.st2{fill:none;stroke:#000000;stroke-width:2;stroke-miterlimit:10;}
	.st3{opacity:0.53;}
	.st4{fill:#7F1424;}
	.st5{opacity:0.1;fill:#FFFFFF;}
	.st6{opacity:0.12;}
	.st7{opacity:0.26;}
	.st8{fill:#FFFFFF;}
	.st9{opacity:6.000000e-02;fill:#FFFFFF;}
	.st10{opacity:0.1;}
	.st11{opacity:0.37;}
	.st12{enable-background:new    ;}
	.st13{clip-path:url(#SVGID_2_);}
	.st14{clip-path:url(#SVGID_4_);}
	.st15{clip-path:url(#SVGID_6_);}
	.st16{fill:none;stroke:#000000;stroke-width:2;stroke-linecap:round;stroke-miterlimit:10;}
	.st17{fill:#FCF5ED;stroke:#000000;stroke-width:2;stroke-linejoin:round;stroke-miterlimit:10;}
	.st18{fill:#7F1424;stroke:#000000;stroke-width:2;stroke-miterlimit:10;}
	.st19{fill:#7F1424;stroke:#000000;stroke-width:2.2678;stroke-miterlimit:10;}
	.st20{fill:#CCCCCC;stroke:#000000;stroke-width:2.7143;stroke-miterlimit:10;}
</style>
<g>
	<line class="st0" x1="142.5" y1="73.4" x2="142.5" y2="118.4"/>
	<g>
		<g>
			<g>
				<path class="st1" d="M100.8,22.5h30.1c0-6.2,0-12.4,0-18.6c-7.3-1.6-15.4-2.7-24.3-2.9c-2,0-3.9,0-5.7,0"/>
			</g>
			<g>
				<path class="st1" d="M101.8,22.5H71.8c0-6.2,0-12.4,0-18.6C79,2.3,87.2,1.2,96.1,1c2,0,3.9,0,5.7,0"/>
			</g>
		</g>
		<g>
			<g>
				<path class="st2" d="M100.9,22.5h30.1c0-6.2,0-12.4,0-18.6c-7.3-1.6-15.4-2.7-24.3-2.9c-2,0-3.9,0-5.7,0"/>
			</g>
			<g>
				<path class="st2" d="M101.8,22.5H71.8c0-6.2,0-12.4,0-18.6C79,2.3,87.2,1.2,96.1,1c2,0,3.9,0,5.7,0"/>
			</g>
		</g>
		<g class="st3">
			<g>
				<path d="M100.8,35.5h68.7V12.6c-31.3-1.6-46.9-3-51.5-4.3c-1-0.3-3.4-1.1-5.7,0c-2.7,1.2-2.9,3.9-5.7,5.7
					c-2,1.3-4.3,1.5-5.7,1.4C100.8,22.1,100.8,28.8,100.8,35.5z"/>
			</g>
			<g>
				<path d="M101.8,35.5H33.1V12.6c31.3-1.6,46.9-3,51.5-4.3c1-0.3,3.4-1.1,5.7,0c2.7,1.2,2.9,3.9,5.7,5.7c2,1.3,4.3,1.5,5.7,1.4
					C101.8,22.1,101.8,28.8,101.8,35.5z"/>
			</g>
		</g>
		<g>
			<g>
				<path class="st4" d="M100.8,72.8c16.9,0.3,33.9,0.6,50.8,0.9c0.1-2.3-0.1-6-1.4-10.3c-1.5-4.6-3.6-7.7-5-9.4
					c-14.8,0-29.6,0-44.4,0"/>
			</g>
			<g>
				<path class="st4" d="M101.8,72.8c-16.9,0.3-33.9,0.6-50.8,0.9c-0.1-2.3,0.1-6,1.4-10.3c1.5-4.6,3.6-7.7,5-9.4
					c14.8,0,29.6,0,44.4,0"/>
			</g>
		</g>
		<path class="st5" d="M73.2,72.8c-4.8,0-9.5,0-14.3,0c-0.1-2.5,0.1-6.2,1.4-10.3c0.4-1.3,0.9-2.4,1.4-3.4c4.8,0,9.5,0,14.3,0
			c-0.5,1-1,2.1-1.4,3.4C73.3,66.6,73.1,70.3,73.2,72.8z"/>
		<g>
			<g>
				<path class="st2" d="M100.9,72.8c16.9,0.3,33.9,0.6,50.8,0.9c0.1-2.3-0.1-6-1.4-10.3c-1.5-4.6-3.6-7.7-5-9.4
					c-14.8,0-29.6,0-44.4,0"/>
			</g>
			<g>
				<path class="st2" d="M101.8,72.8c-16.9,0.3-33.9,0.6-50.8,0.9c-0.1-2.3,0.1-6,1.4-10.3c1.5-4.6,3.6-7.7,5-9.4
					c14.8,0,29.6,0,44.4,0"/>
			</g>
		</g>
		<g>
			<g>
				<path class="st1" d="M101.2,61.2c1.9,0.1,4.9,0.2,8.6,0c10.7-0.5,12.8-2.4,21.5-2.9c6.3-0.3,13.1-0.7,20,2.9
					c5.3,2.7,4.7,4.7,9,6.4c6.9,2.7,13.7,0,22.5-3.5c10.2-4.1,17.5-7,18.6-12.9c0.2-1.3,0.5-4.3-5.7-12.9c-6.2-8.6-13.1-14.8-20-20
					c-10.9-8.3-16.4-12.4-24.3-14.3c-8.1-1.9-14.9-1-22.9,0c-7.8,1-11.7,1.6-14.3,4.3c-3.9,4.1-3.3,9.8-8.6,12.9
					c-1.6,0.9-3.2,1.3-4.3,1.4"/>
			</g>
			<g>
				<path class="st1" d="M101.8,61.2c-1.9,0.1-4.9,0.2-8.6,0c-10.7-0.5-12.8-2.4-21.5-2.9c-6.3-0.3-13.1-0.7-20,2.9
					c-5.3,2.7-4.7,4.7-9,6.4c-6.9,2.7-13.7,0-22.5-3.5C10,59.9,2.7,57,1.6,51.1c-0.2-1.3-0.5-4.3,5.7-12.9c6.2-8.6,13.1-14.8,20-20
					C38.3,9.9,43.7,5.8,51.7,3.9c8.1-1.9,14.9-1,22.9,0c7.8,1,11.7,1.6,14.3,4.3c3.9,4.1,3.3,9.8,8.6,12.9c1.6,0.9,3.2,1.3,4.3,1.4"
					/>
			</g>
		</g>
		<path class="st6" d="M147.9,59c1.7,0.6,4.1,1.6,6.7,3.3c4.4,2.9,4.2,4.6,7.4,5.5c2.1,0.6,5.5,1,8.7,0.5l0,0c3.5-0.5,4-1.4,11.4-4
			c4.6-1.6,5.8-1.8,9.4-3.3c4.4-1.9,6.5-3.3,8-5.4c1.1-1.5,1.7-3,2-4c0.1-0.6,0.1-1.6,0-2.7c-0.4-3.9-3.3-8-3.3-8
			c-6.8-9.4-14-16.1-14-16.1c-1.8-1.6-4.6-4.2-8.7-7.4c-5.9-4.5-11.2-7.8-15.4-10c1.4,5.3,3.8,17.3-0.7,31.4
			C156.3,48.5,151.3,55.2,147.9,59z"/>
		<g class="st7">
			<g>
				<path class="st8" d="M100.8,61c1.8,0.1,3.6,0.1,5.4,0.2c-0.2-1-0.5-2.4-0.8-4.3c-1.1-7.7-0.7-13.2-0.8-18.6
					c0-4.1-0.3-9.9-1.5-17.2c-0.8,0.5-1.5,1-2.3,1.4C100.9,35.3,100.8,48.2,100.8,61z"/>
			</g>
			<g>
				<path class="st8" d="M101.8,61c-1.8,0.1-3.6,0.1-5.4,0.2c0.2-1,0.5-2.4,0.8-4.3c1.1-7.7,0.7-13.2,0.8-18.6
					c0-4.1,0.3-9.9,1.5-17.2c0.8,0.5,1.5,1,2.3,1.4C101.8,35.3,101.8,48.2,101.8,61z"/>
			</g>
		</g>
		<path class="st9" d="M55.7,59c-1.7,0.6-4.1,1.6-6.7,3.3c-4.4,2.9-4.2,4.6-7.4,5.5c-2.1,0.6-5.5,1-8.7,0.5l0,0
			c-3.5-0.5-4-1.4-11.4-4c-4.6-1.6-5.8-1.8-9.4-3.3c-4.4-1.9-6.5-3.3-8-5.4c-1.1-1.5-1.7-3-2-4c-0.1-0.6-0.1-1.6,0-2.7
			c0.4-3.9,3.3-8,3.3-8c6.8-9.4,14-16.1,14-16.1c1.8-1.6,4.6-4.2,8.7-7.4c5.9-4.5,11.2-7.8,15.4-10c-1.4,5.3-3.8,17.3,0.7,31.4
			C47.4,48.5,52.3,55.2,55.7,59z"/>
		<g>
			<g>
				<path class="st0" d="M101.2,61.2c1.9,0.1,4.9,0.2,8.6,0c10.7-0.5,12.8-2.4,21.5-2.9c6.3-0.3,13.1-0.7,20,2.9
					c5.3,2.7,4.7,4.7,9,6.4c6.9,2.7,13.7,0,22.5-3.5c10.2-4.1,17.5-7,18.6-12.9c0.2-1.3,0.5-4.3-5.7-12.9c-6.2-8.6-13.1-14.8-20-20
					c-10.9-8.3-16.4-12.4-24.3-14.3c-8.1-1.9-14.9-1-22.9,0c-7.8,1-11.7,1.6-14.3,4.3c-3.9,4.1-3.3,9.8-8.6,12.9
					c-1.6,0.9-3.2,1.3-4.3,1.4"/>
			</g>
			<g>
				<path class="st0" d="M101.8,61.2c-1.9,0.1-4.9,0.2-8.6,0c-10.7-0.5-12.8-2.4-21.5-2.9c-6.3-0.3-13.1-0.7-20,2.9
					c-5.3,2.7-4.7,4.7-9,6.4c-6.9,2.7-13.7,0-22.5-3.5C10,59.9,2.7,57,1.6,51.1c-0.2-1.3-0.5-4.3,5.7-12.9c6.2-8.6,13.1-14.8,20-20
					C38.3,9.9,43.7,5.8,51.7,3.9c8.1-1.9,14.9-1,22.9,0c7.8,1,11.7,1.6,14.3,4.3c3.9,4.1,3.3,9.8,8.6,12.9c1.6,0.9,3.2,1.3,4.3,1.4"
					/>
			</g>
		</g>
		<path class="st10" d="M128.1,73.9c4.8-0.1,9.5-0.3,14.3-0.4c0-2.9-0.3-7-1.8-11.5c-0.5-1.4-1-2.7-1.5-3.8
			c-4.8,0.1-9.5,0.3-14.3,0.4c0.5,1.1,1.1,2.4,1.5,3.8C127.9,66.8,128.2,71,128.1,73.9z"/>
		<g class="st11">
			<g>
				<g class="st12">
					<defs>
						<polygon id="SVGID_1_" class="st12" points="135.9,30.3 132.9,17.9 143.8,16.1 146.7,28.5 						"/>
					</defs>
					<clipPath id="SVGID_2_">
						<use xlink:href="#SVGID_1_"  style="overflow:visible;"/>
					</clipPath>
					<g class="st13">
						<g>
							<g>
								<g>
									<path d="M141.2,23l-0.9,1.6l5.2,3.9c0.2,0.2,0.5,0.2,0.7,0.2c0.2,0,0.4-0.2,0.5-0.4c0.2-0.4,0.1-1-0.3-1.4L141.2,23
										 M133.8,17.7c-0.2,0-0.4,0.2-0.5,0.4c-0.2,0.4-0.1,1,0.3,1.4l5.2,3.9l0.9-1.6l-5.2-3.9C134.2,17.7,134,17.7,133.8,17.7"/>
									<path d="M143.2,16.2c-0.2,0-0.4,0.2-0.5,0.4l-3,5.2l-0.9,1.6l-3,5.2c-0.2,0.4-0.1,1,0.3,1.4c0.2,0.2,0.5,0.2,0.7,0.2
										c0.2,0,0.4-0.2,0.5-0.4l3-5.2l0.9-1.6l3-5.2c0.2-0.4,0.1-1-0.3-1.4C143.6,16.3,143.4,16.2,143.2,16.2"/>
								</g>
							</g>
						</g>
					</g>
				</g>
			</g>
		</g>
		<g class="st11">
			<g>
				<g>
					<g class="st12">
						<defs>
							<polygon id="SVGID_3_" class="st12" points="55.7,28 56.7,15.3 67.5,17.1 66.4,29.8 							"/>
						</defs>
						<clipPath id="SVGID_4_">
							<use xlink:href="#SVGID_3_"  style="overflow:visible;"/>
						</clipPath>
						<g class="st14">
							<g>
								<g>
									<g>
										<path d="M57.5,15.4c-0.2,0-0.4,0-0.6,0.2c-0.4,0.3-0.4,1-0.1,1.4l8.5,12.3c0.2,0.2,0.4,0.4,0.6,0.4c0.2,0,0.4,0,0.6-0.2
											c0.4-0.3,0.4-1,0.1-1.4l-8.4-12.3C58,15.6,57.8,15.5,57.5,15.4"/>
									</g>
								</g>
							</g>
						</g>
					</g>
				</g>
			</g>
			<g>
				<g>
					<g class="st12">
						<defs>
							<polygon id="SVGID_5_" class="st12" points="55.7,28 56.7,15.3 67.5,17.1 66.4,29.8 							"/>
						</defs>
						<clipPath id="SVGID_6_">
							<use xlink:href="#SVGID_5_"  style="overflow:visible;"/>
						</clipPath>
						<g class="st15">
							<g>
								<g>
									<g>
										<path d="M66.9,17c-0.2,0-0.4,0-0.6,0.2L56,26.3c-0.4,0.3-0.4,0.9-0.1,1.4c0.2,0.2,0.4,0.4,0.6,0.4c0.2,0,0.4,0,0.6-0.2
											l10.2-9.2c0.4-0.3,0.4-1,0.1-1.4C67.3,17.2,67.1,17,66.9,17"/>
									</g>
								</g>
							</g>
						</g>
					</g>
				</g>
			</g>
		</g>
		<path class="st16" d="M52.4,65.7c6.3,0.3,12.7,0.7,19.4,1.3c14.7,1.4,28.3,3.5,40.8,6"/>
		<path class="st16" d="M150,62.3c-6.2,0.2-12.7,0.7-19.4,1.3c-13.4,1.4-25.7,3.5-36.8,6"/>
	</g>
	<rect x="139.5" y="76.4" class="st17" width="6" height="6"/>
	<path class="st18" d="M142.5,92.9L142.5,92.9c-1.9,0-3.5-1.6-3.5-3.5v0c0-1.9,1.6-3.5,3.5-3.5l0,0c1.9,0,3.5,1.6,3.5,3.5v0
		C146,91.4,144.4,92.9,142.5,92.9z"/>
	<path class="st19" d="M142.5,105.4L142.5,105.4c-1.9,0-3.5-1.6-3.5-3.5v-2c0-1.9,1.6-3.5,3.5-3.5l0,0c1.9,0,3.5,1.6,3.5,3.5v2
		C146,103.9,144.4,105.4,142.5,105.4z"/>
	<path class="st20" d="M142.5,118.9L142.5,118.9c-2.6,0-4.8-2.1-4.8-4.8v0c0-2.6,2.1-4.7,4.8-4.7l0,0c2.6,0,4.8,2.1,4.8,4.7v0
		C147.2,116.8,145.1,118.9,142.5,118.9z"/>
	<line class="st16" x1="142.5" y1="118.9" x2="142.5" y2="124.9"/>
	<line class="st16" x1="141" y1="118.4" x2="138" y2="124.4"/>
	<line class="st16" x1="144" y1="118.4" x2="147" y2="124.4"/>
</g>
</svg>
