<?xml version="1.0" encoding="utf-8"?>
<!-- Generator: Adobe Illustrator 21.0.0, SVG Export Plug-In . SVG Version: 6.00 Build 0)  -->
<svg version="1.1" id="Layer_1" xmlns="http://www.w3.org/2000/svg" xmlns:xlink="http://www.w3.org/1999/xlink" x="0px" y="0px"
	 viewBox="0 0 202.2 172.2" style="enable-background:new 0 0 202.2 172.2;" xml:space="preserve">
<style type="text/css">
	.st0{fill:none;stroke:#000000;stroke-width:2;stroke-miterlimit:10;}
	.st1{fill:#4D4D4D;}
	.st2{fill:#999999;}
	.st3{opacity:0.2;fill:#4D4D4D;}
	.st4{fill:none;stroke:#FF00FF;stroke-width:1.5451;stroke-miterlimit:10;}
	.st5{opacity:0.83;fill:#AAA9AA;}
	.st6{opacity:0.21;}
	.st7{fill:none;stroke:#333333;stroke-width:2;stroke-miterlimit:10;}
	.st8{fill:none;stroke:#333333;stroke-width:2;stroke-linecap:round;stroke-miterlimit:10;}
	.st9{fill:none;stroke:#333333;stroke-width:2;stroke-linecap:round;stroke-linejoin:round;stroke-miterlimit:10;}
	.st10{fill:none;stroke:#333333;stroke-width:2;stroke-linejoin:round;stroke-miterlimit:10;}
	.st11{fill:none;stroke:#000000;stroke-width:2;stroke-linecap:round;stroke-miterlimit:10;}
	.st12{opacity:0.41;}
	.st13{fill:#FFFFFF;}
</style>
<g>
	<path class="st0" d="M102.9,14.9c0.4,1,2.7,1,7.2,1c5,0.1,7.8,0.1,10.9-0.7c7.5-1.9,14.9-8.6,13.8-11.6c-1.2-3.3-9.2-3.5-18-0.3
		C108.6,6.1,101.9,12.6,102.9,14.9z"/>
	<g>
		<path class="st1" d="M17.9,130.1c-5.6-0.7-12.3-2.4-14.8-7.4c-2.2-4.4,0.1-8.9,2.1-16.9c3.1-12.3,1.8-17,3.2-25.4
			c3.1-19,16.3-32.9,21.1-38.1C56.1,14.2,95.4,15.7,101.4,16C73.6,54.1,45.7,92.1,17.9,130.1z"/>
		<path class="st0" d="M17.9,130.1c-5.6-0.7-12.3-2.4-14.8-7.4c-2.2-4.4,0.1-8.9,2.1-16.9c3.1-12.3,1.8-17,3.2-25.4
			c3.1-19,16.3-32.9,21.1-38.1C56.1,14.2,95.4,15.7,101.4,16C73.6,54.1,45.7,92.1,17.9,130.1z"/>
	</g>
	<path class="st0" d="M100.9,14.9c-0.5,1.2-3.2,1.1-7.7,1c-1.6,0-4.9-0.1-8.5-1.1C77,12.8,68.1,6.6,69.1,3.6c0.9-2.8,10.5-3,18-0.3
		C95.1,6.1,101.9,12.6,100.9,14.9z"/>
	<g>
		<path class="st1" d="M185.1,130.1c5.6-0.7,12.3-2.4,14.8-7.4c2.2-4.4-0.1-8.9-2.1-16.9c-3.1-12.3-1.8-17-3.2-25.4
			c-3.1-19-16.3-32.9-21.1-38.1c-26.6-28.1-65.9-26.6-71.9-26.3C129.4,54.1,157.3,92.1,185.1,130.1z"/>
		<path class="st0" d="M185.1,130.1c5.6-0.7,12.3-2.4,14.8-7.4c2.2-4.4-0.1-8.9-2.1-16.9c-3.1-12.3-1.8-17-3.2-25.4
			c-3.1-19-16.3-32.9-21.1-38.1c-26.6-28.1-65.9-26.6-71.9-26.3C129.4,54.1,157.3,92.1,185.1,130.1z"/>
	</g>
	<g>
		<g>
			<path class="st2" d="M100.7,141c31.3-4.6,62.6-9.3,93.9-13.9c2-4,2-7,1.6-9c-0.5-2.4-1.5-3.7-2.5-7.4c-0.6-2.4-0.8-4.4-0.8-5.7
				c-0.3-2.5-0.9-6.2-1.6-10.6c-2.2-12.3-3.7-21.1-7.4-29.4c-4.6-10.4-11-16.9-15.5-21.2c-23.4-22.7-55.6-26.2-67.8-27"/>
		</g>
		<g>
			<path class="st2" d="M101.5,141c-31.3-4.6-62.6-9.3-93.9-13.9c-2-4-2-7-1.6-9c0.5-2.4,1.5-3.7,2.5-7.4c0.6-2.4,0.8-4.4,0.8-5.7
				c0.3-2.5,0.9-6.2,1.6-10.6C13,82.2,14.5,73.4,18.2,65c4.6-10.4,11-16.9,15.5-21.2c23.4-22.7,55.6-26.2,67.8-27"/>
		</g>
	</g>
	<path class="st3" d="M175.3,122.7c3.2,0.2,5.7,0.1,7.4,0c3.7-0.2,5.7-0.8,8.5,0c1.9,0.5,3.4,1.5,4.2,2.1c0.3-0.7,0.8-1.8,1.1-3.2
		c0.8-4-0.5-6.9-2.1-12.7c-0.8-2.8-1.5-5.4-2.1-8.5c-1-5.6-0.6-7.9-1.1-12.7c-0.5-5.4-1.8-9.3-3.2-13.7c0,0-4-12.5-11.6-23.3
		c-9.3-13.1-30.5-27-59.2-32.8c7.8,3.9,42.7,22.3,55,62.4C177.4,97.5,176.7,112.7,175.3,122.7z"/>
	<path class="st4" d="M112.3,16.9"/>
	<path class="st5" d="M27.6,122.7c-3.2,0.2-5.7,0.1-7.4,0c-3.7-0.2-5.7-0.8-8.5,0c-1.9,0.5-3.4,1.5-4.2,2.1
		c-0.3-0.7-0.8-1.8-1.1-3.2c-0.8-4,0.5-6.9,2.1-12.7c0.8-2.8,1.5-5.4,2.1-8.5c1-5.6,0.6-7.9,1.1-12.7c0.5-5.4,1.8-9.3,3.2-13.7
		c0,0,4-12.5,11.6-23.3C35.8,37.7,57,23.8,85.7,18c-7.8,3.9-42.7,22.3-55,62.4C25.5,97.5,26.2,112.7,27.6,122.7z"/>
	<g class="st6">
		<path class="st7" d="M23.3,55c9.1,2.5,19.2,4.7,30.2,6.4c17.5,2.7,33.4,3.4,47,3.1"/>
		<path class="st7" d="M8.5,112.1c13.8,2.9,29,5.5,45.5,7.4c17.1,2,33,2.9,47.6,3.2"/>
		<path class="st7" d="M9.6,106.8c13.5,2.9,28.3,5.5,44.4,7.4c17.1,2,33.1,2.9,47.6,3.2"/>
		<path class="st7" d="M10.8,101.4c12.9,2.9,27.2,5.5,42.7,7.5c17.4,2.1,33.5,3.1,48.1,3.2"/>
		<path class="st7" d="M6.6,117.3c14.3,2.9,30,5.5,47,7.5c17.2,1.9,33.3,2.9,48,3.2"/>
		<path class="st7" d="M11.7,96.3c12.8,2.9,26.9,5.5,42.3,7.4c17.2,2.1,33.2,3,47.6,3.2"/>
		<path class="st7" d="M11.8,90.9c12.8,2.9,26.9,5.5,42.2,7.4c17.2,2.1,33.1,3.1,47.5,3.3"/>
		<path class="st7" d="M12.9,85.8c12.6,2.9,26.5,5.5,41.7,7.3c17,2.1,32.8,3,47,3.1"/>
		<path class="st7" d="M13.9,80.5c12.3,2.8,25.9,5.4,40.8,7.2c16.6,2.1,32,2.9,45.9,3"/>
		<path class="st7" d="M14.9,75.1C26.8,78,40,80.7,54.6,82.6c17.2,2.3,33,3.1,47,3.1"/>
		<path class="st7" d="M17,69.8c11.2,2.9,23.8,5.6,37.6,7.5c17.3,2.4,33.1,3.2,47,3.1"/>
		<path class="st7" d="M19.1,64.5c10.5,2.9,22.4,5.5,35.5,7.5c17.5,2.6,33.3,3.3,47,3.1"/>
		<g>
			<line class="st7" x1="96.3" y1="131.2" x2="96.3" y2="17"/>
			<path class="st7" d="M91,130.1c0-37.7,0-75.4,0-113.1"/>
			<path class="st7" d="M85.7,130.1c0-37.4,0-74.7,0-112.1"/>
			<path class="st7" d="M80.4,130.1c0-37,0-74,0-111"/>
			<path class="st7" d="M75.2,130.1c0-36.3,0-72.6,0-108.9"/>
			<path class="st7" d="M69.9,130.1c0-36,0-71.9,0-107.9"/>
			<path class="st7" d="M64.6,129c0-34.9,0-69.8,0-104.7"/>
			<path class="st7" d="M59.3,128c0-33.8,0-67.7,0-101.5"/>
			<path class="st7" d="M54,128c0-33.1,0-66.3,0-99.4"/>
			<path class="st7" d="M48.7,126.9c0-31.7,0-63.4,0-95.2"/>
			<path class="st8" d="M43.4,125.9c0-30.3,0-60.6,0-90.9"/>
			<path class="st8" d="M38.1,124.8c0-28.2,0-56.4,0-84.6"/>
			<path class="st9" d="M32.9,123.8c0-26.4,0-52.9,0-79.3"/>
			<path class="st9" d="M27.6,122.7c0-23.6,0-47.2,0-70.8"/>
			<path class="st9" d="M22.3,122.7c0-20.8,0-41.6,0-62.4"/>
			<path class="st10" d="M17,122.7c0-17.6,0-35.2,0-52.9"/>
			<path class="st10" d="M11.7,123.8c0-9.2,0-18.3,0-27.5"/>
		</g>
		<path class="st7" d="M21.2,59.3c9.9,2.9,21.1,5.5,33.6,7.4c17.1,2.6,32.6,3.3,45.8,3"/>
		<path class="st7" d="M27.6,50.8c8.3,2.1,17.3,3.9,27,5.4c17.3,2.6,33.2,3.3,47,3.1"/>
		<path class="st8" d="M30.7,46.6c7.3,1.6,15,3.1,23.2,4.2c16.6,2.4,32,3.1,45.7,3"/>
		<path class="st7" d="M34.9,42.3c6.4,1.2,13.1,2.3,20.1,3.2c16.4,2.1,31.7,2.9,45.7,3"/>
		<path class="st7" d="M39,38.1c5.2,0.8,10.6,1.5,16,2.1c16,1.8,31.3,2.7,45.7,3"/>
		<path class="st7" d="M48.7,32.8c4.1,0.8,8.3,1.5,12.7,2.1c14.6,2,28.1,2.5,40.2,2.1"/>
		<path class="st7" d="M55.1,28.6c5.5,0.9,11.5,1.7,18,2.1c10.5,0.8,20.1,0.6,28.5,0"/>
		<path class="st7" d="M64.6,24.4c5.7,0.5,11.7,0.8,18,0.9c6.3,0.1,12.3,0.1,18.1-0.1"/>
		<path class="st8" d="M76.2,20.1c6,0,12,0,18,0c2.1,0,4.2,0,6.3,0"/>
	</g>
	<g class="st6">
		<path class="st7" d="M179.8,55c-9.1,2.5-19.2,4.7-30.2,6.4c-17.5,2.7-33.4,3.4-47,3.1"/>
		<path class="st7" d="M194.6,112.1c-13.8,2.9-29,5.5-45.5,7.4c-17.1,2-33,2.9-47.6,3.2"/>
		<path class="st7" d="M193.6,106.8c-13.5,2.9-28.3,5.5-44.4,7.4c-17.1,2-33.1,2.9-47.6,3.2"/>
		<path class="st7" d="M192.4,101.4c-12.9,2.9-27.2,5.5-42.7,7.5c-17.4,2.1-33.5,3.1-48.1,3.2"/>
		<path class="st7" d="M196.6,117.3c-14.3,2.9-30,5.5-47,7.5c-17.2,1.9-33.3,2.9-48,3.2"/>
		<path class="st7" d="M191.5,96.3c-12.8,2.9-26.9,5.5-42.3,7.4c-17.2,2.1-33.2,3-47.6,3.2"/>
		<path class="st7" d="M191.3,90.9c-12.8,2.9-26.9,5.5-42.2,7.4c-17.2,2.1-33.1,3.1-47.5,3.3"/>
		<path class="st7" d="M190.3,85.8c-12.6,2.9-26.5,5.5-41.7,7.3c-17,2.1-32.8,3-47,3.1"/>
		<path class="st7" d="M189.2,80.5c-12.3,2.8-25.9,5.4-40.8,7.2c-16.6,2.1-32,2.9-45.9,3"/>
		<path class="st7" d="M188.3,75.1c-11.9,2.9-25.2,5.6-39.7,7.5c-17.2,2.3-33,3.1-47,3.1"/>
		<path class="st7" d="M186.2,69.8c-11.2,2.9-23.8,5.6-37.6,7.5c-17.3,2.4-33.1,3.2-47,3.1"/>
		<path class="st7" d="M184.1,64.5c-10.5,2.9-22.4,5.5-35.5,7.5c-17.5,2.6-33.3,3.3-47,3.1"/>
		<g>
			<line class="st7" x1="106.9" y1="131.2" x2="106.9" y2="17"/>
			<path class="st7" d="M112.2,130.1c0-37.7,0-75.4,0-113.1"/>
			<path class="st7" d="M117.4,130.1c0-37.4,0-74.7,0-112.1"/>
			<path class="st7" d="M122.7,130.1c0-37,0-74,0-111"/>
			<path class="st7" d="M128,130.1c0-36.3,0-72.6,0-108.9"/>
			<path class="st7" d="M133.3,130.1c0-36,0-71.9,0-107.9"/>
			<path class="st7" d="M138.6,129c0-34.9,0-69.8,0-104.7"/>
			<path class="st7" d="M143.9,128c0-33.8,0-67.7,0-101.5"/>
			<path class="st7" d="M149.2,128c0-33.1,0-66.3,0-99.4"/>
			<path class="st7" d="M154.5,126.9c0-31.7,0-63.4,0-95.2"/>
			<path class="st8" d="M159.7,125.9c0-30.3,0-60.6,0-90.9"/>
			<path class="st8" d="M165,124.8c0-28.2,0-56.4,0-84.6"/>
			<path class="st9" d="M170.3,123.8c0-26.4,0-52.9,0-79.3"/>
			<path class="st9" d="M175.6,122.7c0-23.6,0-47.2,0-70.8"/>
			<path class="st9" d="M180.9,122.7c0-20.8,0-41.6,0-62.4"/>
			<path class="st10" d="M186.2,122.7c0-17.6,0-35.2,0-52.9"/>
			<path class="st10" d="M191.5,123.8c0-9.2,0-18.3,0-27.5"/>
		</g>
		<path class="st7" d="M181.9,59.3c-9.9,2.9-21.1,5.5-33.6,7.4c-17.1,2.6-32.6,3.3-45.8,3"/>
		<path class="st7" d="M175.6,50.8c-8.3,2.1-17.3,3.9-27,5.4c-17.3,2.6-33.2,3.3-47,3.1"/>
		<path class="st8" d="M172.4,46.6c-7.3,1.6-15,3.1-23.2,4.2c-16.6,2.4-32,3.1-45.7,3"/>
		<path class="st7" d="M168.3,42.3c-6.4,1.2-13.1,2.3-20.1,3.2c-16.4,2.1-31.7,2.9-45.7,3"/>
		<path class="st7" d="M164.2,38.1c-5.2,0.8-10.6,1.5-16,2.1c-16,1.8-31.3,2.7-45.7,3"/>
		<path class="st7" d="M154.5,32.8c-4.1,0.8-8.3,1.5-12.7,2.1c-14.6,2-28.1,2.5-40.2,2.1"/>
		<path class="st7" d="M148.1,28.6c-5.5,0.9-11.5,1.7-18,2.1c-10.5,0.8-20.1,0.6-28.5,0"/>
		<path class="st7" d="M138.6,24.4c-5.7,0.5-11.7,0.8-18,0.9c-6.3,0.1-12.3,0.1-18.1-0.1"/>
		<path class="st8" d="M127,20.1c-6,0-12,0-18,0c-2.1,0-4.2,0-6.3,0"/>
	</g>
	<g>
		<g>
			<path class="st0" d="M101,140.2c31.3-4.6,62.6-9.3,93.9-13.9c0.6-1.1,1.3-2.8,1.6-4.9c0.6-4.4-1.2-8-1.6-9
				c-4.8-10.3-1.7-28.9-10.6-48.2c-4.8-10.5-11.2-17.1-15.5-21.2c-23.4-22.7-55.6-26.2-67.8-27"/>
		</g>
		<g>
			<path class="st0" d="M101.5,140.2c-31.3-4.6-62.6-9.3-93.9-13.9c-0.6-1.1-1.3-2.8-1.6-4.9c-0.6-4.4,1.2-8,1.6-9
				c4.8-10.3,1.7-28.9,10.6-48.2C23,53.7,29.4,47.2,33.7,43c23.4-22.7,55.6-26.2,67.8-27"/>
		</g>
	</g>
	<path class="st11" d="M101.6,131.2V16c-9.2,2.5-11.4,5.2-11.6,7.3c-0.3,2.7,2.8,4.7,2.1,7.4c-0.6,2.4-3.9,3.6-6.3,4.2"/>
	<g>
		<g>
			<path class="st2" d="M101.8,171.1c26.5,0.6,47.4-2,61.3-4.4c15.7-2.8,26.1-6,32.7-12.2c1.7-1.6,6.7-6.4,6.5-12.7
				c0-0.9-0.9-3-2.5-7.2c-2.2-5.8-3.3-8.7-4.1-9.4c-5.4-4.6-22.4-1.3-29.4,0c-14.6,2.7-35.8,5.5-64.5,6.1"/>
		</g>
		<g>
			<path class="st2" d="M102.5,171.1c-26.5,0.6-47.4-2-61.3-4.4c-15.7-2.8-26.1-6-32.7-12.2c-1.7-1.6-6.7-6.4-6.5-12.7
				c0-0.9,0.9-3,2.5-7.2c2.2-5.8,3.3-8.7,4.1-9.4c5.4-4.6,22.4-1.3,29.4,0c14.6,2.7,35.8,5.5,64.5,6.1"/>
		</g>
	</g>
	<g class="st12">
		<g>
			<path class="st13" d="M100.9,170.1c26.5,0.6,47.4-2,61.3-4.4c15.7-2.8,26.1-6,32.7-12.2c1.5-1.4,7.9-7.5,6.5-12.7
				c-0.3-1.2-1-2-2.2-5.4c-1-2.6-1.7-4.9-2.1-6.3c0.8,2.5,1.9,7.5,0,12.7c-1,2.8-3.3,6.7-11.6,11.6c-11.2,6.6-22,8.1-24.3,8.5
				c-24.9,3.3-50.1,4-60.3,4.2"/>
		</g>
		<g>
			<path class="st13" d="M101.5,170.1c-26.5,0.6-47.4-2-61.3-4.4c-15.7-2.8-26.1-6-32.7-12.2C6,152-0.4,145.9,1,140.7
				c0.3-1.2,1-2,2.2-5.4c1-2.6,1.7-4.9,2.1-6.3c-0.8,2.5-1.9,7.5,0,12.7c1,2.8,3.3,6.7,11.6,11.6c11.2,6.6,22,8.1,24.3,8.5
				c24.9,3.3,50.1,4,60.3,4.2"/>
		</g>
	</g>
	<g class="st6">
		<g>
			<line class="st9" x1="101.6" y1="131.7" x2="101.6" y2="170.8"/>
		</g>
		<g>
			<g>
				<path class="st9" d="M196.7,126.9c-4.7-0.3-10-0.4-15.9,0c-7.7,0.5-14.5,1.8-20.1,3.2c-4.8,0.8-9.8,1.5-14.8,2.1
					c-15.6,2-30.5,2.9-44.4,3.2"/>
			</g>
			<g>
				<path class="st9" d="M5.4,126.9c4.7-0.3,10-0.4,15.9,0c7.7,0.5,14.5,1.8,20.1,3.2c4.8,0.8,9.8,1.5,14.8,2.1
					c15.6,2,30.5,2.9,44.4,3.2"/>
			</g>
		</g>
		<g>
			<g>
				<path class="st9" d="M197.7,132.2c-7.2-0.6-13-0.3-16.9,0c-6.3,0.6-9.2,1.4-20.1,3.2c0,0-5.3,0.8-14.8,2.1
					c-7.2,1-21.3,2.5-44.4,3.2"/>
			</g>
			<g>
				<path class="st9" d="M4.3,132.2c7.2-0.6,13-0.3,16.9,0c6.3,0.6,9.2,1.4,20.1,3.2c0,0,5.3,0.8,14.8,2.1c7.2,1,21.3,2.5,44.4,3.2"
					/>
			</g>
		</g>
		<g>
			<g>
				<path class="st9" d="M198.8,137.5c-7.6-0.6-13.8-0.4-18,0c-5.2,0.4-7.8,1.1-21.1,3.2c0,0-2,0.3-13.7,2.1
					c-8.5,1.3-22.1,2.7-44.4,3.2"/>
			</g>
			<g>
				<path class="st9" d="M3.3,137.5c7.6-0.6,13.8-0.4,18,0c5.2,0.4,7.8,1.1,21.1,3.2c0,0,2,0.3,13.7,2.1c8.5,1.3,22.1,2.7,44.4,3.2"
					/>
			</g>
		</g>
		<g>
			<g>
				<path class="st9" d="M96.4,131.2c-0.5,6.7-0.9,13.8-1.1,21.1c-0.1,6.2-0.1,12.2,0,18"/>
			</g>
			<g>
				<path class="st9" d="M11.7,123.8c-2.1,3-5.8,9.3-6.3,18c-0.2,4.3,0.4,7.9,1.1,10.6"/>
			</g>
			<g>
				<path class="st9" d="M17,122.7c-2.2,2.9-6.9,10-7.4,20.1c-0.3,5.9,1,10.7,2.1,13.7"/>
			</g>
			<g>
				<path class="st9" d="M27.6,123.8c-2.1,3.3-4.9,8.7-6.3,15.9c-2,9.9-0.2,18,1,22.2"/>
			</g>
			<g>
				<path class="st9" d="M32.9,124.8c-2.1,3.3-4.9,8.7-6.3,15.9c-2,9.9-0.2,18,1,22.2"/>
			</g>
			<g>
				<path class="st9" d="M22.3,123.8c-2.1,2.9-6.4,9.5-7.4,19c-0.8,7.6,0.9,13.6,2.1,16.9"/>
			</g>
			<g>
				<path class="st9" d="M43.4,126.9c-1.9,3.7-4,8.7-5.2,14.8c-2.2,10.3-1.1,19,0,24.3"/>
			</g>
			<g>
				<path class="st9" d="M48.7,128c-1.9,4.4-4.1,10.5-5.2,18c-1.3,8.6-0.8,16,0,21.1"/>
			</g>
			<g>
				<path class="st9" d="M38.2,125.9c-1.9,3.7-4,8.7-5.2,14.8c-2.2,10.3-1.1,19,0,24.3"/>
			</g>
			<g>
				<path class="st9" d="M59.3,129c-1.2,5.4-2.4,11.4-3.1,18c-0.9,7.8-1.2,14.9-1.1,21.1"/>
			</g>
			<g>
				<path class="st9" d="M91.1,131.2c-0.4,3.8-0.8,7.7-1.1,11.6c-0.7,9.6-1,18.8-1.1,27.5"/>
			</g>
			<g>
				<path class="st9" d="M85.7,131.2c-0.4,2.1-0.7,4.2-1,6.3c-1.7,11.6-2.2,22.6-2.1,32.8"/>
			</g>
			<g>
				<path class="st9" d="M80.4,131.2c-1.2,5-2.4,10.7-3.1,16.9c-1,8.2-1.2,15.7-1.1,22.2"/>
			</g>
			<g>
				<path class="st9" d="M69.9,130.1c-1.2,5.4-2.4,11.4-3.1,18c-0.9,7.8-1.2,14.9-1.1,21.1"/>
			</g>
			<g>
				<path class="st9" d="M75.2,130.1c-0.8,3-1.5,6.2-2.1,9.5C71,151,70.6,161.3,71,170.3"/>
			</g>
			<g>
				<path class="st9" d="M64.6,130.1c-1.2,5.4-2.4,11.4-3.1,18c-0.9,7.8-1.2,14.9-1.1,21.1"/>
			</g>
			<g>
				<path class="st9" d="M54.1,128c-1.6,5.3-3.2,11.7-4.2,19c-1.1,7.6-1.3,14.4-1.1,20.1"/>
			</g>
		</g>
		<g>
			<g>
				<path class="st9" d="M199.9,142.8c-2.6-0.1-6.7-0.2-11.6,0c-8.9,0.4-14.1,1.7-24.3,3.2c-4.2,0.6-8.8,1.1-18,2.1
					c-9.9,1.1-24.7,2.4-44.4,3.2"/>
			</g>
			<g>
				<path class="st9" d="M2.2,142.8c2.6-0.1,6.7-0.2,11.6,0c8.9,0.4,14.1,1.7,24.3,3.2c4.2,0.6,8.8,1.1,18,2.1
					c9.9,1.1,24.7,2.4,44.4,3.2"/>
			</g>
		</g>
		<g>
			<g>
				<path class="st9" d="M198.8,148.1c-11.2,1.2-21.2,2.3-29.6,3.2c-26.6,2.8-34.3,3.6-44.4,4.2c-9.9,0.6-18.1,0.9-23.3,1.1"/>
			</g>
			<g>
				<path class="st9" d="M3.3,148.1c11.2,1.2,21.2,2.3,29.6,3.2c26.6,2.8,34.3,3.6,44.4,4.2c9.9,0.6,18.1,0.9,23.3,1.1"/>
			</g>
		</g>
		<g>
			<g>
				<path class="st9" d="M194.6,153.4c-10.4,1.4-19.1,2.5-25.4,3.2c-14.4,1.7-27.6,3.2-44.4,4.2c-9.8,0.6-17.9,0.9-23.3,1.1"/>
			</g>
			<g>
				<path class="st9" d="M7.5,153.4c10.4,1.4,19.1,2.5,25.4,3.2c14.4,1.7,27.6,3.2,44.4,4.2c9.8,0.6,17.9,0.9,23.3,1.1"/>
			</g>
		</g>
		<g>
			<g>
				<path class="st9" d="M106.8,131.2c0.5,6.7,0.9,13.8,1.1,21.1c0.1,6.2,0.1,12.2,0,18"/>
			</g>
			<g>
				<path class="st9" d="M191.5,123.8c2.1,3,5.8,9.3,6.3,18c0.2,4.3-0.4,7.9-1.1,10.6"/>
			</g>
			<g>
				<path class="st9" d="M186.2,122.7c2.2,2.9,6.9,10,7.4,20.1c0.3,5.9-1,10.7-2.1,13.7"/>
			</g>
			<g>
				<path class="st9" d="M175.6,123.8c2.1,3.3,4.9,8.7,6.3,15.9c2,9.9,0.2,18-1,22.2"/>
			</g>
			<g>
				<path class="st9" d="M170.3,124.8c2.1,3.3,4.9,8.7,6.3,15.9c2,9.9,0.2,18-1,22.2"/>
			</g>
			<g>
				<path class="st9" d="M180.9,123.8c2.1,2.9,6.4,9.5,7.4,19c0.8,7.6-0.9,13.6-2.1,16.9"/>
			</g>
			<g>
				<path class="st9" d="M159.7,126.9c1.9,3.7,4,8.7,5.2,14.8c2.2,10.3,1.1,19,0,24.3"/>
			</g>
			<g>
				<path class="st9" d="M154.5,128c1.9,4.4,4.1,10.5,5.2,18c1.3,8.6,0.8,16,0,21.1"/>
			</g>
			<g>
				<path class="st9" d="M165,125.9c1.9,3.7,4,8.7,5.2,14.8c2.2,10.3,1.1,19,0,24.3"/>
			</g>
			<g>
				<path class="st9" d="M143.9,129c1.2,5.4,2.4,11.4,3.1,18c0.9,7.8,1.2,14.9,1.1,21.1"/>
			</g>
			<g>
				<path class="st9" d="M112.1,131.2c0.4,3.8,0.8,7.7,1.1,11.6c0.7,9.6,1,18.8,1.1,27.5"/>
			</g>
			<g>
				<path class="st9" d="M117.4,131.2c0.4,2.1,0.7,4.2,1,6.3c1.7,11.6,2.2,22.6,2.1,32.8"/>
			</g>
			<g>
				<path class="st9" d="M122.7,131.2c1.2,5,2.4,10.7,3.1,16.9c1,8.2,1.2,15.7,1.1,22.2"/>
			</g>
			<g>
				<path class="st9" d="M133.3,130.1c1.2,5.4,2.4,11.4,3.1,18c0.9,7.8,1.2,14.9,1.1,21.1"/>
			</g>
			<g>
				<path class="st9" d="M128,130.1c0.8,3,1.5,6.2,2.1,9.5c2.1,11.3,2.5,21.7,2.1,30.7"/>
			</g>
			<g>
				<path class="st9" d="M138.6,130.1c1.2,5.4,2.4,11.4,3.1,18c0.9,7.8,1.2,14.9,1.1,21.1"/>
			</g>
			<g>
				<path class="st9" d="M149.1,128c1.6,5.3,3.2,11.7,4.2,19c1.1,7.6,1.3,14.4,1.1,20.1"/>
			</g>
		</g>
		<g>
			<g>
				<path class="st9" d="M188.2,158.6c-5,0.8-12.3,2-21.1,3.2c-20.1,2.7-35.7,3.8-42.3,4.2c-6.1,0.4-14,0.8-23.3,1.1"/>
			</g>
			<g>
				<path class="st9" d="M13.8,158.6c5,0.8,12.3,2,21.1,3.2c20.1,2.7,35.7,3.8,42.3,4.2c6.1,0.4,14,0.8,23.3,1.1"/>
			</g>
		</g>
	</g>
	<g>
		<g>
			<path class="st0" d="M100.8,171.1c26.5,0.6,47.4-2,61.3-4.4c15.7-2.8,26.1-6,32.7-12.2c1.7-1.6,6.7-6.4,6.5-12.7
				c0-0.9-0.9-3-2.5-7.2c-2.2-5.8-3.3-8.7-4.1-9.4c-5.4-4.6-22.4-1.3-29.4,0c-14.6,2.7-35.8,5.5-64.5,6.1"/>
		</g>
		<g>
			<path class="st0" d="M101.5,171.1c-26.5,0.6-47.4-2-61.3-4.4c-15.7-2.8-26.1-6-32.7-12.2c-1.7-1.6-6.7-6.4-6.5-12.7
				c0-0.9,0.9-3,2.5-7.2c2.2-5.8,3.3-8.7,4.1-9.4c5.4-4.6,22.4-1.3,29.4,0c14.6,2.7,35.8,5.5,64.5,6.1"/>
		</g>
	</g>
	<path class="st0" d="M94.2,8.5"/>
	<path class="st11" d="M101.6,15.9c3,0.7,6.7,2.1,8.5,5.3c1.6,3,0.4,5.6,2.1,7.4c1.2,1.3,4,2.1,10.6,0"/>
</g>
</svg>
