<?xml version="1.0" encoding="utf-8"?>
<!-- Generator: Adobe Illustrator 21.0.0, SVG Export Plug-In . SVG Version: 6.00 Build 0)  -->
<svg version="1.1" id="Layer_1" xmlns="http://www.w3.org/2000/svg" xmlns:xlink="http://www.w3.org/1999/xlink" x="0px" y="0px"
	 viewBox="0 0 191.3 163" style="enable-background:new 0 0 191.3 163;" xml:space="preserve">
<style type="text/css">
	.st0{fill:none;stroke:#000000;stroke-width:2;stroke-miterlimit:10;}
	.st1{fill:#4D4D4D;}
	.st2{fill:#999999;}
	.st3{opacity:0.2;fill:#4D4D4D;}
	.st4{fill:none;stroke:#FF00FF;stroke-width:1.5451;stroke-miterlimit:10;}
	.st5{opacity:0.83;fill:#AAA9AA;}
	.st6{opacity:0.21;}
	.st7{fill:none;stroke:#333333;stroke-width:2;stroke-miterlimit:10;}
	.st8{fill:none;stroke:#333333;stroke-width:2;stroke-linecap:round;stroke-miterlimit:10;}
	.st9{fill:none;stroke:#333333;stroke-width:2;stroke-linecap:round;stroke-linejoin:round;stroke-miterlimit:10;}
	.st10{fill:none;stroke:#333333;stroke-width:2;stroke-linejoin:round;stroke-miterlimit:10;}
	.st11{fill:none;stroke:#000000;stroke-width:2;stroke-linecap:round;stroke-miterlimit:10;}
	.st12{opacity:0.41;}
	.st13{fill:#FFFFFF;}
</style>
<g>
	<path class="st0" d="M97.4,14.1c0.4,0.9,2.5,0.9,6.8,1c4.7,0.1,7.4,0.1,10.3-0.7c7.1-1.8,14.1-8.1,13-11c-1.1-3.1-8.7-3.3-17-0.3
		C102.8,5.8,96.4,12,97.4,14.1z"/>
	<g>
		<path class="st1" d="M17,123.1c-5.3-0.6-11.6-2.3-14-7c-2.1-4.1,0.1-8.4,2-16c3-11.6,1.7-16.1,3-24c2.9-18,15.4-31.2,20-36
			c25.2-26.6,62.3-25.2,68-24.9C69.6,51.2,43.3,87.1,17,123.1z"/>
		<path class="st0" d="M17,123.1c-5.3-0.6-11.6-2.3-14-7c-2.1-4.1,0.1-8.4,2-16c3-11.6,1.7-16.1,3-24c2.9-18,15.4-31.2,20-36
			c25.2-26.6,62.3-25.2,68-24.9C69.6,51.2,43.3,87.1,17,123.1z"/>
	</g>
	<path class="st0" d="M95.4,14.1c-0.5,1.1-3,1.1-7.3,1c-1.6,0-4.6-0.1-8-1c-7.2-2-15.7-7.8-14.8-10.7c0.8-2.7,9.9-2.8,17-0.3
		C90,5.8,96.4,12,95.4,14.1z"/>
	<g>
		<path class="st1" d="M175.1,123.1c5.3-0.6,11.6-2.3,14-7c2.1-4.1-0.1-8.4-2-16c-3-11.6-1.7-16.1-3-24c-2.9-18-15.4-31.2-20-36
			c-25.2-26.6-62.3-25.2-68-24.9C122.5,51.2,148.8,87.1,175.1,123.1z"/>
		<path class="st0" d="M175.1,123.1c5.3-0.6,11.6-2.3,14-7c2.1-4.1-0.1-8.4-2-16c-3-11.6-1.7-16.1-3-24c-2.9-18-15.4-31.2-20-36
			c-25.2-26.6-62.3-25.2-68-24.9C122.5,51.2,148.8,87.1,175.1,123.1z"/>
	</g>
	<g>
		<g>
			<path class="st2" d="M95.3,133.4c29.6-4.4,59.2-8.8,88.8-13.1c1.9-3.8,1.9-6.6,1.5-8.5c-0.4-2.3-1.5-3.5-2.3-7
				c-0.5-2.2-0.7-4.1-0.8-5.4c-0.3-2.4-0.8-5.9-1.5-10c-2-11.6-3.5-20-7-27.8c-4.3-9.9-10.4-16-14.7-20.1
				C137.2,20,106.8,16.7,95.3,16"/>
		</g>
		<g>
			<path class="st2" d="M96,133.4c-29.6-4.4-59.2-8.8-88.8-13.1c-1.9-3.8-1.9-6.6-1.5-8.5c0.4-2.3,1.5-3.5,2.3-7
				c0.5-2.2,0.7-4.1,0.8-5.4c0.3-2.4,0.8-5.9,1.5-10c2-11.6,3.5-20,7-27.8c4.3-9.9,10.4-16,14.7-20.1C54.1,20,84.5,16.7,96,16"/>
		</g>
	</g>
	<path class="st3" d="M165.9,116.1c3,0.2,5.4,0.1,7,0c3.5-0.2,5.4-0.7,8,0c1.8,0.5,3.2,1.4,4,2c0.3-0.7,0.7-1.7,1-3
		c0.8-3.8-0.4-6.6-2-12c-0.8-2.7-1.5-5.1-2-8c-1-5.3-0.6-7.5-1-12c-0.5-5.1-1.7-8.8-3-13c0,0-3.8-11.9-11-22
		c-8.8-12.4-28.9-25.6-56-31c7.4,3.7,40.4,21.1,52,59C167.8,92.3,167.2,106.7,165.9,116.1z"/>
	<path class="st4" d="M106.3,16"/>
	<path class="st5" d="M26.1,116.1c-3,0.2-5.4,0.1-7,0c-3.5-0.2-5.4-0.7-8,0c-1.8,0.5-3.2,1.4-4,2c-0.3-0.7-0.7-1.7-1-3
		c-0.8-3.8,0.4-6.6,2-12c0.8-2.7,1.5-5.1,2-8c1-5.3,0.6-7.5,1-12c0.5-5.1,1.7-8.8,3-13c0,0,3.8-11.9,11-22c8.8-12.4,28.9-25.6,56-31
		c-7.4,3.7-40.4,21.1-52,59C24.2,92.3,24.8,106.7,26.1,116.1z"/>
	<g class="st6">
		<path class="st7" d="M22.1,52.1c8.6,2.3,18.1,4.5,28.6,6.1c16.6,2.5,31.6,3.2,44.4,2.9"/>
		<path class="st7" d="M8.1,106.1c13.1,2.8,27.4,5.2,43,7c16.2,1.9,31.2,2.7,45,3"/>
		<path class="st7" d="M9.1,101.1c12.7,2.8,26.8,5.2,42,7c16.2,1.9,31.3,2.8,45,3"/>
		<path class="st7" d="M10.3,96c12.2,2.8,25.7,5.2,40.4,7c16.5,2,31.7,2.9,45.5,3.1"/>
		<path class="st7" d="M6.3,111c13.5,2.8,28.4,5.2,44.4,7c16.3,1.8,31.5,2.7,45.4,3.1"/>
		<path class="st7" d="M11.1,91.1c12.1,2.7,25.4,5.2,40,7c16.3,2,31.4,2.9,45,3"/>
		<path class="st7" d="M11.3,86c12.1,2.7,25.4,5.2,40,7c16.3,2,31.3,2.9,44.9,3.1"/>
		<path class="st7" d="M12.2,81.2c11.9,2.7,25.1,5.2,39.5,6.9c16.1,2,31,2.8,44.4,2.9"/>
		<path class="st7" d="M13.2,76.2c11.6,2.7,24.5,5.1,38.5,6.8C67.5,85,82,85.8,95.2,85.9"/>
		<path class="st7" d="M14.1,71.1c11.2,2.8,23.8,5.3,37.6,7.1c16.3,2.1,31.2,2.9,44.4,2.9"/>
		<path class="st7" d="M16.1,66.1c10.6,2.7,22.5,5.3,35.6,7.1c16.4,2.3,31.3,3,44.4,2.9"/>
		<path class="st7" d="M18.1,61.1c9.9,2.7,21.2,5.2,33.6,7.1c16.5,2.4,31.5,3.1,44.4,2.9"/>
		<g>
			<line class="st7" x1="91.1" y1="124.1" x2="91.1" y2="16.1"/>
			<path class="st7" d="M86.1,123.1c0-35.7,0-71.3,0-107"/>
			<path class="st7" d="M81.1,123.1c0-35.3,0-70.7,0-106"/>
			<path class="st7" d="M76.1,123.1c0-35,0-70,0-105"/>
			<path class="st7" d="M71.1,123.1c0-34.3,0-68.7,0-103"/>
			<path class="st7" d="M66.1,123.1c0-34,0-68,0-102"/>
			<path class="st7" d="M61.1,122.1c0-33,0-66,0-99"/>
			<path class="st7" d="M56.1,121.1c0-32,0-64,0-96"/>
			<path class="st7" d="M51.1,121.1c0-31.3,0-62.7,0-94"/>
			<path class="st7" d="M46.1,120.1c0-30,0-60,0-90"/>
			<path class="st8" d="M41.1,119.1c0-28.7,0-57.3,0-86"/>
			<path class="st8" d="M36.1,118.1c0-26.7,0-53.3,0-80"/>
			<path class="st9" d="M31.1,117.1c0-25,0-50,0-75"/>
			<path class="st9" d="M26.1,116.1c0-22.3,0-44.7,0-67"/>
			<path class="st9" d="M21.1,116.1c0-19.7,0-39.3,0-59"/>
			<path class="st10" d="M16.1,116.1c0-16.7,0-33.3,0-50"/>
			<path class="st10" d="M11.1,117.1c0-8.7,0-17.3,0-26"/>
		</g>
		<path class="st7" d="M20.1,56.1c9.4,2.7,20,5.2,31.7,7c16.2,2.5,30.8,3.1,43.3,2.8"/>
		<path class="st7" d="M26.1,48.1c7.8,1.9,16.4,3.7,25.6,5.1c16.4,2.4,31.4,3.1,44.4,2.9"/>
		<path class="st8" d="M29.1,44.1c6.9,1.5,14.2,2.9,21.9,4c15.7,2.2,30.3,2.9,43.2,2.8"/>
		<path class="st7" d="M33,40.1c6.1,1.1,12.4,2.2,19,3c15.5,2,30,2.8,43.2,2.8"/>
		<path class="st7" d="M36.9,36.1c4.9,0.7,10,1.4,15.1,2c15.2,1.7,29.6,2.6,43.2,2.8"/>
		<path class="st7" d="M46.1,31.1c3.9,0.8,7.9,1.4,12,2c13.8,1.9,26.6,2.4,38,2"/>
		<path class="st7" d="M52.1,27.1c5.2,0.9,10.9,1.6,17,2c9.9,0.7,19,0.6,27,0"/>
		<path class="st7" d="M61.1,23.1c5.4,0.4,11.1,0.8,17.1,0.9c6,0.1,11.7,0.1,17.1-0.1"/>
		<path class="st8" d="M72.1,19.1c5.7,0,11.3,0,17,0c2,0,4,0,6,0"/>
	</g>
	<g class="st6">
		<path class="st7" d="M170.1,52.1c-8.6,2.3-18.1,4.5-28.6,6.1c-16.6,2.5-31.6,3.2-44.4,2.9"/>
		<path class="st7" d="M184.1,106.1c-13.1,2.8-27.4,5.2-43,7c-16.2,1.9-31.2,2.7-45,3"/>
		<path class="st7" d="M183.1,101.1c-12.7,2.8-26.8,5.2-42,7c-16.2,1.9-31.3,2.8-45,3"/>
		<path class="st7" d="M182,96c-12.2,2.8-25.7,5.2-40.4,7c-16.5,2-31.7,2.9-45.5,3.1"/>
		<path class="st7" d="M186,111c-13.5,2.8-28.4,5.2-44.4,7c-16.3,1.8-31.5,2.7-45.4,3.1"/>
		<path class="st7" d="M181.1,91.1c-12.1,2.7-25.4,5.2-40,7c-16.3,2-31.4,2.9-45,3"/>
		<path class="st7" d="M181,86c-12.1,2.7-25.4,5.2-40,7c-16.3,2-31.3,2.9-44.9,3.1"/>
		<path class="st7" d="M180,81.2c-11.9,2.7-25.1,5.2-39.5,6.9c-16.1,2-31,2.8-44.4,2.9"/>
		<path class="st7" d="M179,76.2c-11.6,2.7-24.5,5.1-38.5,6.8c-15.7,1.9-30.3,2.7-43.4,2.8"/>
		<path class="st7" d="M178.1,71.1c-11.2,2.8-23.8,5.3-37.6,7.1c-16.3,2.1-31.2,2.9-44.4,2.9"/>
		<path class="st7" d="M176.1,66.1c-10.6,2.7-22.5,5.3-35.6,7.1c-16.4,2.3-31.3,3-44.4,2.9"/>
		<path class="st7" d="M174.1,61.1c-9.9,2.7-21.2,5.2-33.6,7.1c-16.5,2.4-31.5,3.1-44.4,2.9"/>
		<g>
			<line class="st7" x1="101.1" y1="124.1" x2="101.1" y2="16.1"/>
			<path class="st7" d="M106.1,123.1c0-35.7,0-71.3,0-107"/>
			<path class="st7" d="M111.1,123.1c0-35.3,0-70.7,0-106"/>
			<path class="st7" d="M116.1,123.1c0-35,0-70,0-105"/>
			<path class="st7" d="M121.1,123.1c0-34.3,0-68.7,0-103"/>
			<path class="st7" d="M126.1,123.1c0-34,0-68,0-102"/>
			<path class="st7" d="M131.1,122.1c0-33,0-66,0-99"/>
			<path class="st7" d="M136.1,121.1c0-32,0-64,0-96"/>
			<path class="st7" d="M141.1,121.1c0-31.3,0-62.7,0-94"/>
			<path class="st7" d="M146.1,120.1c0-30,0-60,0-90"/>
			<path class="st8" d="M151.1,119.1c0-28.7,0-57.3,0-86"/>
			<path class="st8" d="M156.1,118.1c0-26.7,0-53.3,0-80"/>
			<path class="st9" d="M161.1,117.1c0-25,0-50,0-75"/>
			<path class="st9" d="M166.1,116.1c0-22.3,0-44.7,0-67"/>
			<path class="st9" d="M171.1,116.1c0-19.7,0-39.3,0-59"/>
			<path class="st10" d="M176.1,116.1c0-16.7,0-33.3,0-50"/>
			<path class="st10" d="M181.1,117.1c0-8.7,0-17.3,0-26"/>
		</g>
		<path class="st7" d="M172.1,56.1c-9.4,2.7-20,5.2-31.7,7c-16.2,2.5-30.8,3.1-43.3,2.8"/>
		<path class="st7" d="M166.1,48.1c-7.8,1.9-16.4,3.7-25.6,5.1c-16.4,2.4-31.4,3.1-44.4,2.9"/>
		<path class="st8" d="M163.1,44.1c-6.9,1.5-14.2,2.9-21.9,4c-15.7,2.2-30.3,2.9-43.2,2.8"/>
		<path class="st7" d="M159.2,40.1c-6.1,1.1-12.4,2.2-19,3c-15.5,2-30,2.8-43.2,2.8"/>
		<path class="st7" d="M155.3,36.1c-4.9,0.7-10,1.4-15.1,2c-15.2,1.7-29.6,2.6-43.2,2.8"/>
		<path class="st7" d="M146.1,31.1c-3.9,0.8-7.9,1.4-12,2c-13.8,1.9-26.6,2.4-38,2"/>
		<path class="st7" d="M140.1,27.1c-5.2,0.9-10.9,1.6-17,2c-9.9,0.7-19,0.6-27,0"/>
		<path class="st7" d="M131.1,23.1c-5.4,0.4-11.1,0.8-17.1,0.9c-6,0.1-11.7,0.1-17.1-0.1"/>
		<path class="st8" d="M120.1,19.1c-5.7,0-11.3,0-17,0c-2,0-4,0-6,0"/>
	</g>
	<g>
		<g>
			<path class="st0" d="M95.5,132.6c29.6-4.4,59.2-8.8,88.8-13.1c0.6-1.1,1.3-2.6,1.5-4.6c0.6-4.2-1.1-7.5-1.5-8.5
				c-4.5-9.8-1.6-27.4-10-45.6c-4.6-9.9-10.6-16.1-14.7-20.1c-22.2-21.4-52.6-24.8-64.1-25.5"/>
		</g>
		<g>
			<path class="st0" d="M96,132.6c-29.6-4.4-59.2-8.8-88.8-13.1c-0.6-1.1-1.3-2.6-1.5-4.6c-0.6-4.2,1.1-7.5,1.5-8.5
				c4.5-9.8,1.6-27.4,10-45.6c4.6-9.9,10.6-16.1,14.7-20.1C54.1,19.3,84.5,15.9,96,15.2"/>
		</g>
	</g>
	<path class="st11" d="M96.1,124.1V15.2c-8.7,2.4-10.8,4.9-11,6.9c-0.3,2.6,2.7,4.4,2,7c-0.6,2.3-3.6,3.4-6,4"/>
	<g>
		<g>
			<path class="st2" d="M96.3,161.9c25.1,0.6,44.8-1.9,57.9-4.2c14.9-2.6,24.7-5.7,30.9-11.5c1.6-1.5,6.4-6,6.2-12
				c0-0.9-0.8-2.9-2.3-6.8c-2.1-5.5-3.1-8.3-3.9-8.9c-5.1-4.4-21.2-1.2-27.8,0c-13.8,2.5-33.8,5.2-61,5.8"/>
		</g>
		<g>
			<path class="st2" d="M97,161.9c-25.1,0.6-44.8-1.9-57.9-4.2c-14.9-2.6-24.7-5.7-30.9-11.5c-1.6-1.5-6.4-6-6.2-12
				c0-0.9,0.8-2.9,2.3-6.8c2.1-5.5,3.1-8.3,3.9-8.9c5.1-4.4,21.2-1.2,27.8,0c13.8,2.5,33.8,5.2,61,5.8"/>
		</g>
	</g>
	<g class="st12">
		<g>
			<path class="st13" d="M95.5,160.9c25.1,0.6,44.8-1.9,57.9-4.2c14.9-2.6,24.7-5.7,30.9-11.5c1.5-1.4,7.5-7.1,6.2-12
				c-0.3-1.1-0.9-1.9-2.1-5.1c-1-2.5-1.6-4.6-2-6c0.7,2.4,1.8,7,0,12c-1,2.6-3.1,6.4-11,11c-10.6,6.2-20.8,7.7-23,8
				c-23.5,3.1-47.4,3.8-57,4"/>
		</g>
		<g>
			<path class="st13" d="M96,160.9c-25.1,0.6-44.8-1.9-57.9-4.2c-14.9-2.6-24.7-5.7-30.9-11.5c-1.5-1.4-7.5-7.1-6.2-12
				c0.3-1.1,0.9-1.9,2.1-5.1c1-2.5,1.6-4.6,2-6c-0.7,2.4-1.8,7,0,12c1,2.6,3.1,6.4,11,11c10.6,6.2,20.8,7.7,23,8
				c23.5,3.1,47.4,3.8,57,4"/>
		</g>
	</g>
	<g class="st6">
		<g>
			<line class="st9" x1="96.1" y1="124.6" x2="96.1" y2="161.6"/>
		</g>
		<g>
			<g>
				<path class="st9" d="M186.1,120.1c-4.4-0.3-9.5-0.4-15,0c-7.3,0.5-13.7,1.7-19,3c-4.6,0.7-9.2,1.4-14,2c-14.8,1.8-28.8,2.8-42,3
					"/>
			</g>
			<g>
				<path class="st9" d="M5.1,120.1c4.4-0.3,9.5-0.4,15,0c7.3,0.5,13.7,1.7,19,3c4.6,0.7,9.2,1.4,14,2c14.8,1.8,28.8,2.8,42,3"/>
			</g>
		</g>
		<g>
			<g>
				<path class="st9" d="M187.1,125.1c-6.8-0.6-12.3-0.3-16,0c-5.9,0.5-8.7,1.4-19,3c0,0-5,0.8-14,2c-6.8,0.9-20.1,2.4-42,3"/>
			</g>
			<g>
				<path class="st9" d="M4.1,125.1c6.8-0.6,12.3-0.3,16,0c5.9,0.5,8.7,1.4,19,3c0,0,5,0.8,14,2c6.8,0.9,20.1,2.4,42,3"/>
			</g>
		</g>
		<g>
			<g>
				<path class="st9" d="M188.1,130.1c-7.2-0.6-13-0.3-17,0c-4.9,0.4-7.4,1-20,3c0,0-1.8,0.3-13,2c-8,1.2-20.9,2.6-42,3"/>
			</g>
			<g>
				<path class="st9" d="M3.1,130.1c7.2-0.6,13-0.3,17,0c4.9,0.4,7.4,1,20,3c0,0,1.8,0.3,13,2c8,1.2,20.9,2.6,42,3"/>
			</g>
		</g>
		<g>
			<g>
				<path class="st9" d="M91.2,124.1c-0.5,6.4-0.8,13-1,20c-0.1,5.9-0.1,11.6,0,17"/>
			</g>
			<g>
				<path class="st9" d="M11.1,117.1c-2,2.8-5.5,8.8-6,17c-0.2,4,0.3,7.5,1,10"/>
			</g>
			<g>
				<path class="st9" d="M16.1,116.1c-2,2.7-6.5,9.5-7,19c-0.3,5.6,0.9,10.1,2,13"/>
			</g>
			<g>
				<path class="st9" d="M26.2,117.1c-2,3.2-4.7,8.2-6,15c-1.8,9.3-0.2,17,1,21"/>
			</g>
			<g>
				<path class="st9" d="M31.2,118.1c-2,3.2-4.7,8.2-6,15c-1.8,9.3-0.2,17,1,21"/>
			</g>
			<g>
				<path class="st9" d="M21.1,117.1c-2,2.8-6,9-7,18c-0.7,7.2,0.8,12.9,2,16"/>
			</g>
			<g>
				<path class="st9" d="M41.1,120.1c-1.8,3.5-3.7,8.2-5,14c-2,9.7-1,17.9,0,23"/>
			</g>
			<g>
				<path class="st9" d="M46.1,121.1c-1.8,4.2-3.9,9.9-5,17c-1.2,8.2-0.7,15.1,0,20"/>
			</g>
			<g>
				<path class="st9" d="M36.1,119.1c-1.8,3.5-3.7,8.2-5,14c-2,9.7-1,17.9,0,23"/>
			</g>
			<g>
				<path class="st9" d="M56.1,122.1c-1.2,5.1-2.2,10.8-3,17c-0.9,7.3-1.1,14.1-1,20"/>
			</g>
			<g>
				<path class="st9" d="M86.2,124.1c-0.4,3.6-0.7,7.3-1,11c-0.7,9.1-1,17.7-1,26"/>
			</g>
			<g>
				<path class="st9" d="M81.1,124.1c-0.3,2-0.7,4-1,6c-1.6,11-2.1,21.4-2,31"/>
			</g>
			<g>
				<path class="st9" d="M76.1,124.1c-1.2,4.8-2.2,10.1-3,16c-1,7.8-1.2,14.9-1,21"/>
			</g>
			<g>
				<path class="st9" d="M66.1,123.1c-1.2,5.1-2.2,10.8-3,17c-0.9,7.3-1.1,14.1-1,20"/>
			</g>
			<g>
				<path class="st9" d="M71.2,123.1c-0.7,2.8-1.4,5.9-2,9c-2,10.7-2.4,20.6-2,29"/>
			</g>
			<g>
				<path class="st9" d="M61.1,123.1c-1.2,5.1-2.2,10.8-3,17c-0.9,7.3-1.1,14.1-1,20"/>
			</g>
			<g>
				<path class="st9" d="M51.2,121.1c-1.6,5-3,11.1-4,18c-1,7.2-1.2,13.6-1,19"/>
			</g>
		</g>
		<g>
			<g>
				<path class="st9" d="M189.1,135.1c-2.5-0.1-6.3-0.2-11,0c-8.4,0.4-13.4,1.6-23,3c-4,0.6-8.3,1.1-17,2c-9.3,1-23.3,2.3-42,3"/>
			</g>
			<g>
				<path class="st9" d="M2.1,135.1c2.5-0.1,6.3-0.2,11,0c8.4,0.4,13.4,1.6,23,3c4,0.6,8.3,1.1,17,2c9.3,1,23.3,2.3,42,3"/>
			</g>
		</g>
		<g>
			<g>
				<path class="st9" d="M188.1,140.1c-10.6,1.1-20,2.2-28,3c-25.1,2.7-32.4,3.4-42,4c-9.4,0.6-17.1,0.9-22,1"/>
			</g>
			<g>
				<path class="st9" d="M3.1,140.1c10.6,1.1,20,2.2,28,3c25.1,2.7,32.4,3.4,42,4c9.4,0.6,17.1,0.9,22,1"/>
			</g>
		</g>
		<g>
			<g>
				<path class="st9" d="M184.1,145.1c-9.9,1.3-18.1,2.3-24,3c-13.6,1.6-26.1,3-42,4c-9.3,0.6-16.9,0.9-22,1"/>
			</g>
			<g>
				<path class="st9" d="M7.1,145.1c9.9,1.3,18.1,2.3,24,3c13.6,1.6,26.1,3,42,4c9.3,0.6,16.9,0.9,22,1"/>
			</g>
		</g>
		<g>
			<g>
				<path class="st9" d="M101.1,124.1c0.5,6.4,0.8,13,1,20c0.1,5.9,0.1,11.6,0,17"/>
			</g>
			<g>
				<path class="st9" d="M181.1,117.1c2,2.8,5.5,8.8,6,17c0.2,4-0.3,7.5-1,10"/>
			</g>
			<g>
				<path class="st9" d="M176.1,116.1c2,2.7,6.5,9.5,7,19c0.3,5.6-0.9,10.1-2,13"/>
			</g>
			<g>
				<path class="st9" d="M166.1,117.1c2,3.2,4.7,8.2,6,15c1.8,9.3,0.2,17-1,21"/>
			</g>
			<g>
				<path class="st9" d="M161.1,118.1c2,3.2,4.7,8.2,6,15c1.8,9.3,0.2,17-1,21"/>
			</g>
			<g>
				<path class="st9" d="M171.1,117.1c2,2.8,6,9,7,18c0.7,7.2-0.8,12.9-2,16"/>
			</g>
			<g>
				<path class="st9" d="M151.1,120.1c1.8,3.5,3.7,8.2,5,14c2,9.7,1,17.9,0,23"/>
			</g>
			<g>
				<path class="st9" d="M146.1,121.1c1.8,4.2,3.9,9.9,5,17c1.2,8.2,0.7,15.1,0,20"/>
			</g>
			<g>
				<path class="st9" d="M156.1,119.1c1.8,3.5,3.7,8.2,5,14c2,9.7,1,17.9,0,23"/>
			</g>
			<g>
				<path class="st9" d="M136.1,122.1c1.2,5.1,2.2,10.8,3,17c0.9,7.3,1.1,14.1,1,20"/>
			</g>
			<g>
				<path class="st9" d="M106.1,124.1c0.4,3.6,0.7,7.3,1,11c0.7,9.1,1,17.7,1,26"/>
			</g>
			<g>
				<path class="st9" d="M111.1,124.1c0.3,2,0.7,4,1,6c1.6,11,2.1,21.4,2,31"/>
			</g>
			<g>
				<path class="st9" d="M116.1,124.1c1.2,4.8,2.2,10.1,3,16c1,7.8,1.2,14.9,1,21"/>
			</g>
			<g>
				<path class="st9" d="M126.1,123.1c1.2,5.1,2.2,10.8,3,17c0.9,7.3,1.1,14.1,1,20"/>
			</g>
			<g>
				<path class="st9" d="M121.1,123.1c0.7,2.8,1.4,5.9,2,9c2,10.7,2.4,20.6,2,29"/>
			</g>
			<g>
				<path class="st9" d="M131.1,123.1c1.2,5.1,2.2,10.8,3,17c0.9,7.3,1.1,14.1,1,20"/>
			</g>
			<g>
				<path class="st9" d="M141.1,121.1c1.6,5,3,11.1,4,18c1,7.2,1.2,13.6,1,19"/>
			</g>
		</g>
		<g>
			<g>
				<path class="st9" d="M178.1,150.1c-4.7,0.8-11.6,1.9-20,3c-19,2.6-33.7,3.6-40,4c-5.7,0.4-13.2,0.8-22,1"/>
			</g>
			<g>
				<path class="st9" d="M13.1,150.1c4.7,0.8,11.6,1.9,20,3c19,2.6,33.7,3.6,40,4c5.7,0.4,13.2,0.8,22,1"/>
			</g>
		</g>
	</g>
	<g>
		<g>
			<path class="st0" d="M95.3,161.9c25.1,0.6,44.8-1.9,57.9-4.2c14.9-2.6,24.7-5.7,30.9-11.5c1.6-1.5,6.4-6,6.2-12
				c0-0.9-0.8-2.9-2.3-6.8c-2.1-5.5-3.1-8.3-3.9-8.9c-5.1-4.4-21.2-1.2-27.8,0c-13.8,2.5-33.8,5.2-61,5.8"/>
		</g>
		<g>
			<path class="st0" d="M96,161.9c-25.1,0.6-44.8-1.9-57.9-4.2c-14.9-2.6-24.7-5.7-30.9-11.5c-1.6-1.5-6.4-6-6.2-12
				c0-0.9,0.8-2.9,2.3-6.8c2.1-5.5,3.1-8.3,3.9-8.9c5.1-4.4,21.2-1.2,27.8,0c13.8,2.5,33.8,5.2,61,5.8"/>
		</g>
	</g>
	<path class="st0" d="M89.1,8.1"/>
	<path class="st11" d="M96.1,15.1c2.9,0.6,6.4,2,8,5c1.5,2.8,0.4,5.3,2,7c1.2,1.2,3.8,2,10,0"/>
</g>
</svg>
